<svg xmlns="http://www.w3.org/2000/svg" width="599" height="549" viewBox="0 0 599 549" fill="none">


<path d="M259.382 182.714L264.132 183.341L264.141 203.068L260.675 202.611L260.826 199.228L258.475 198.917L257.742 202.223L254.253 201.763L259.382 182.714ZM260.934 196.357L261.35 186.672L261.351 186.105L261.229 186.656L259.116 196.117L260.934 196.357Z" fill="white"/>
<path d="M268.61 184.015L271.626 184.64L272.623 196.33L274.905 185.319L277.921 185.945L273.953 205.094L270.936 204.469L269.944 192.754L267.657 203.789L264.641 203.164L268.61 184.015Z" fill="white"/>
<path d="M280.805 186.609L284.803 187.745C286.104 188.115 287.072 188.551 287.709 189.054C288.361 189.562 288.739 190.228 288.843 191.054C288.967 191.869 288.842 192.935 288.468 194.251L285.994 202.951C285.624 204.252 285.17 205.225 284.631 205.868C284.112 206.5 283.44 206.868 282.614 206.972C281.793 207.06 280.739 206.921 279.454 206.556L275.457 205.419L280.805 186.609ZM280.21 204.077C280.649 204.202 280.999 204.25 281.261 204.223C281.527 204.18 281.745 204.039 281.915 203.799C282.101 203.564 282.267 203.188 282.414 202.671L285.276 192.607C285.427 192.074 285.486 191.658 285.452 191.361C285.434 191.067 285.312 190.838 285.088 190.673C284.88 190.512 284.548 190.367 284.094 190.238L283.412 190.044L279.481 203.87L280.21 204.077Z" fill="white"/>
<path d="M300.313 192.774L304.042 194.31C305.323 194.838 306.251 195.431 306.825 196.091C307.406 196.735 307.687 197.53 307.668 198.474C307.671 199.409 307.377 200.592 306.788 202.024L306.499 202.725C305.916 204.141 305.291 205.188 304.624 205.865C303.972 206.549 303.2 206.927 302.306 206.999C301.434 207.063 300.365 206.834 299.099 206.313L298.557 206.09L296.052 212.17L292.865 210.857L300.313 192.774ZM300.538 204.103C301.035 204.308 301.444 204.3 301.764 204.079C302.105 203.85 302.416 203.396 302.695 202.718L304.082 199.35C304.361 198.672 304.454 198.146 304.361 197.773C304.289 197.391 304.005 197.097 303.508 196.893L302.513 196.483L299.543 203.694L300.538 204.103Z" fill="white"/>
<path d="M308.378 217.78C308.334 217.612 308.36 217.397 308.455 217.135C308.558 216.858 308.712 216.516 308.917 216.108L310.859 212.242C311.159 211.645 311.24 211.157 311.103 210.777C310.979 210.406 310.721 210.121 310.328 209.923L309.476 209.495L305.931 216.55L302.851 215.003L311.632 197.528L315.542 199.493C316.677 200.064 317.5 200.641 318.009 201.225C318.533 201.817 318.775 202.513 318.737 203.315C318.707 204.102 318.399 205.078 317.813 206.243L317.67 206.527C317.202 207.459 316.753 208.172 316.322 208.667C315.912 209.154 315.464 209.485 314.975 209.659C314.508 209.826 313.936 209.876 313.258 209.809C313.913 210.502 314.261 211.225 314.303 211.975C314.353 212.712 314.169 213.495 313.752 214.325L312.062 217.689C311.872 218.067 311.729 218.388 311.634 218.65C311.546 218.897 311.509 219.134 311.523 219.36L308.378 217.78ZM311.492 207.608C312.03 207.879 312.46 207.912 312.781 207.709C313.124 207.498 313.431 207.123 313.702 206.585L314.931 204.138C315.253 203.497 315.374 203.02 315.295 202.707C315.223 202.379 314.924 202.083 314.4 201.819L313.548 201.391L310.64 207.18L311.492 207.608Z" fill="white"/>
<path d="M316.535 222.532C313.803 220.908 313.403 218.471 315.335 215.221L319.781 207.74C321.713 204.49 324.044 203.677 326.776 205.3C329.508 206.924 329.908 209.361 327.977 212.611L323.53 220.092C321.599 223.342 319.267 224.156 316.535 222.532ZM317.774 218.007C317.449 218.554 317.304 218.989 317.339 219.313C317.388 219.645 317.595 219.92 317.959 220.136C318.323 220.353 318.656 220.399 318.957 220.275C319.273 220.159 319.593 219.828 319.917 219.281L325.512 209.867C325.846 209.307 325.988 208.86 325.939 208.528C325.912 208.19 325.717 207.912 325.352 207.696C324.988 207.479 324.644 207.436 324.321 207.566C324.019 207.69 323.706 208.026 323.382 208.572L317.774 218.007Z" fill="white"/>
<path d="M333.472 209.588L336.722 211.894L331.521 222.472L339.811 214.088L343.06 216.394L331.74 232.341L329.228 230.558L335.794 221.309L327.594 229.398L326.278 228.464L331.229 218.068L324.664 227.317L322.152 225.534L333.472 209.588Z" fill="white"/>
<path d="M336.851 236.804C334.416 234.762 334.414 232.293 336.843 229.396L342.435 222.728C344.865 219.831 347.297 219.403 349.732 221.445C352.167 223.487 352.17 225.957 349.74 228.854L344.148 235.522C341.719 238.419 339.286 238.846 336.851 236.804ZM338.802 232.538C338.394 233.025 338.181 233.431 338.163 233.757C338.158 234.093 338.317 234.397 338.642 234.669C338.967 234.941 339.288 235.04 339.605 234.966C339.935 234.903 340.304 234.627 340.713 234.14L347.75 225.749C348.169 225.249 348.381 224.832 348.386 224.496C348.414 224.158 348.266 223.853 347.941 223.58C347.617 223.308 347.284 223.21 346.944 223.286C346.626 223.36 346.263 223.641 345.855 224.128L338.802 232.538Z" fill="white"/>
<path d="M354.454 229.675L352.423 227.731L354.401 225.665L360.935 231.919L358.958 233.985L356.945 232.058L345.4 244.121L342.91 241.737L354.454 229.675Z" fill="white"/>
<path d="M364.26 235.307L369.368 240.839L367.266 242.779L364.497 239.78L360.456 243.511L363.076 246.349L360.993 248.273L358.373 245.435L354.331 249.166L357.101 252.165L354.999 254.106L349.892 248.574L364.26 235.307Z" fill="white"/>
<path d="M377.312 250.665L380.174 254.508L366.037 268.267L363.949 265.464L366.48 263.213L365.063 261.312L362.182 263.091L360.08 260.268L377.312 250.665ZM368.613 261.289L375.846 254.836L376.253 254.441L375.773 254.738L367.518 259.819L368.613 261.289Z" fill="white"/>
<path d="M368.872 273.205C368 271.848 367.75 270.584 368.123 269.415C368.496 268.246 369.477 267.151 371.068 266.13L372.199 265.403L374.101 268.365L372.003 269.712C371.455 270.065 371.124 270.394 371.01 270.699C370.896 271.004 370.963 271.349 371.209 271.733C371.447 272.103 371.717 272.298 372.02 272.317C372.345 272.34 372.768 272.185 373.289 271.85L374.215 271.256C374.777 270.895 375.163 270.531 375.373 270.163C375.596 269.788 375.728 269.315 375.77 268.746L376.044 266.188C376.168 265.024 376.44 264.045 376.861 263.252C377.295 262.45 378.006 261.732 378.993 261.098C380.323 260.244 381.567 259.919 382.726 260.125C383.898 260.321 384.906 261.077 385.752 262.394C386.562 263.655 386.826 264.851 386.545 265.981C386.286 267.116 385.484 268.115 384.14 268.978L382.906 269.77L381.017 266.829L382.58 265.825C383.143 265.464 383.474 265.135 383.574 264.838C383.688 264.533 383.63 264.202 383.401 263.845C383.172 263.489 382.902 263.294 382.59 263.262C382.302 263.234 381.917 263.375 381.437 263.683L380.82 264.079C380.313 264.405 379.954 264.752 379.745 265.119C379.549 265.477 379.428 265.922 379.383 266.455L379.116 268.98C379.02 269.796 378.882 270.486 378.7 271.048C378.542 271.615 378.243 272.175 377.804 272.728C377.378 273.272 376.761 273.804 375.952 274.323C372.949 276.252 370.589 275.879 368.872 273.205Z" fill="white"/>
<path d="M388.956 268.106L390.657 271.104L373.646 280.753L371.946 277.755L388.956 268.106Z" fill="white"/>
<path d="M393.549 276.518L395.696 280.801L379.372 291.879L377.806 288.754L380.691 286.98L379.629 284.86L376.481 286.109L374.904 282.962L393.549 276.518ZM383.128 285.458L391.377 280.368L391.847 280.05L391.322 280.258L382.306 283.819L383.128 285.458Z" fill="white"/>
<path d="M397.587 284.771L398.759 287.619L389.636 294.997L400.034 290.716L401.207 293.564L383.123 301.009L381.95 298.161L391.096 290.774L380.675 295.064L379.503 292.216L397.587 284.771Z" fill="white"/>
<path d="M388.896 302.897L391.846 301.933L393.916 308.267L390.967 309.231L388.896 302.897Z" fill="white"/>
<path d="M406.991 311.73L408.169 316.375L389.848 323.692L388.989 320.303L392.187 319.19L391.605 316.891L388.263 317.436L387.398 314.024L406.991 311.73ZM394.894 318.226L404.043 315.025L404.57 314.815L404.013 314.906L394.443 316.449L394.894 318.226Z" fill="white"/>
<path d="M409.059 319.971L409.727 323.899L398.572 327.707L410.363 327.634L411.032 331.562L391.753 334.844L391.236 331.808L402.418 329.904L390.899 329.831L390.629 328.241L401.478 324.385L390.296 326.289L389.779 323.252L409.059 319.971Z" fill="white"/>
<path d="M411.567 336.199L412.288 343.694L409.441 343.968L409.05 339.904L403.575 340.431L403.945 344.276L401.123 344.548L400.752 340.703L395.278 341.23L395.669 345.294L392.822 345.568L392.1 338.074L411.567 336.199Z" fill="white"/>
<path d="M393.054 352.488C393.181 352.37 393.383 352.291 393.659 352.251C393.951 352.211 394.325 352.184 394.782 352.172L399.107 352.056C399.775 352.038 400.243 351.879 400.512 351.578C400.782 351.294 400.911 350.932 400.899 350.492L400.873 349.539L392.98 349.751L392.888 346.305L412.437 345.78L412.555 350.155C412.589 351.425 412.469 352.423 412.195 353.148C411.921 353.889 411.422 354.432 410.698 354.777C409.99 355.122 408.984 355.312 407.681 355.347L407.363 355.356C406.321 355.384 405.479 355.325 404.84 355.179C404.217 355.049 403.713 354.81 403.329 354.462C402.961 354.129 402.647 353.648 402.385 353.02C402.083 353.924 401.612 354.573 400.97 354.965C400.345 355.357 399.568 355.565 398.639 355.59L394.876 355.691C394.452 355.702 394.103 355.728 393.827 355.768C393.567 355.808 393.341 355.887 393.148 356.006L393.054 352.488ZM403.489 350.422C403.505 351.025 403.679 351.42 404.01 351.607C404.358 351.809 404.833 351.902 405.436 351.886L408.173 351.813C408.89 351.793 409.367 351.675 409.606 351.456C409.861 351.238 409.981 350.835 409.965 350.248L409.939 349.295L403.464 349.469L403.489 350.422Z" fill="white"/>
<path d="M412.629 358.614L412.535 362.06L392.986 361.529L393.079 358.083L412.629 358.614Z" fill="white"/>
<path d="M392.317 368.611C392.587 365.445 394.614 364.023 398.397 364.346L407.044 365.083C410.812 365.404 412.56 367.147 412.29 370.314C412.02 373.48 410.002 374.903 406.235 374.582L403.726 374.368L404.025 370.861L407.654 371.17C408.32 371.227 408.792 371.161 409.069 370.972C409.346 370.799 409.502 370.502 409.538 370.079C409.574 369.657 409.471 369.329 409.229 369.096C408.986 368.879 408.532 368.742 407.866 368.686L396.929 367.753C396.28 367.698 395.817 367.757 395.54 367.929C395.263 368.118 395.106 368.424 395.07 368.846C395.034 369.268 395.137 369.588 395.381 369.805C395.622 370.038 396.068 370.182 396.718 370.238L400.371 370.549L400.072 374.057L397.588 373.845C393.804 373.522 392.048 371.778 392.317 368.611Z" fill="white"/>
<path d="M410.78 381.413L410.043 386.148L390.321 385.7L390.859 382.246L394.237 382.475L394.602 380.132L391.314 379.323L391.855 375.845L410.78 381.413ZM397.105 382.649L406.777 383.289L407.344 383.303L406.796 383.168L397.387 380.838L397.105 382.649Z" fill="white"/>
<path d="M409.291 390.426L408.597 393.427L396.886 394.155L407.842 396.69L407.148 399.691L388.094 395.283L388.789 392.282L400.523 391.559L389.544 389.019L390.238 386.018L409.291 390.426Z" fill="white"/>
<path d="M384.018 407.543C385.083 404.548 387.404 403.687 390.982 404.959L399.158 407.867C402.721 409.133 403.97 411.264 402.905 414.258C401.841 417.252 399.527 418.116 395.965 416.849L393.592 416.006L394.771 412.689L398.203 413.909C398.833 414.133 399.306 414.189 399.623 414.077C399.934 413.98 400.16 413.732 400.302 413.332C400.444 412.933 400.428 412.59 400.253 412.303C400.073 412.032 399.668 411.784 399.039 411.56L388.697 407.883C388.083 407.665 387.62 407.604 387.309 407.701C386.992 407.813 386.763 408.069 386.621 408.468C386.479 408.867 386.498 409.203 386.678 409.474C386.853 409.761 387.247 410.014 387.861 410.232L391.316 411.461L390.137 414.778L387.788 413.942C384.21 412.67 382.953 410.537 384.018 407.543Z" fill="white"/>
<path d="M379.949 417.874C380.603 416.399 381.498 415.485 382.634 415.133C383.77 414.781 385.203 414.987 386.931 415.753L399.984 421.535L398.559 424.753L384.589 418.566C384.008 418.308 383.551 418.213 383.219 418.279C382.901 418.353 382.653 418.59 382.475 418.993C382.303 419.38 382.297 419.716 382.456 420C382.624 420.306 382.998 420.588 383.579 420.845L397.549 427.033L396.133 430.229L383.08 424.447C381.351 423.682 380.236 422.76 379.733 421.682C379.224 420.618 379.296 419.349 379.949 417.874Z" fill="white"/>
<path d="M394.517 433.541L392.924 436.598L378.118 428.88L376.197 432.565L373.661 431.243L377.175 424.501L394.517 433.541Z" fill="white"/>
<path d="M387.021 441.472L388.466 439.061L390.919 440.531L386.269 448.289L383.816 446.819L385.249 444.429L370.928 435.845L372.699 432.889L387.021 441.472Z" fill="white"/>
<path d="M365.395 443.951C366.319 442.628 367.373 441.903 368.556 441.776C369.739 441.648 371.105 442.126 372.654 443.209L384.356 451.387L382.339 454.272L369.816 445.52C369.295 445.156 368.865 444.974 368.526 444.976C368.2 444.987 367.911 445.173 367.659 445.533C367.417 445.881 367.346 446.209 367.448 446.519C367.553 446.851 367.867 447.199 368.388 447.564L380.911 456.316L378.908 459.181L367.207 451.003C365.657 449.92 364.739 448.801 364.453 447.647C364.157 446.505 364.471 445.273 365.395 443.951Z" fill="white"/>
<path d="M357.896 454.273C358.069 454.267 358.273 454.339 358.509 454.489C358.757 454.649 359.058 454.873 359.412 455.161L362.767 457.892C363.286 458.314 363.745 458.499 364.145 458.446C364.534 458.406 364.868 458.216 365.146 457.874L365.748 457.135L359.624 452.15L361.801 449.477L376.967 461.823L374.204 465.217C373.402 466.203 372.661 466.881 371.98 467.252C371.29 467.636 370.557 467.722 369.783 467.512C369.021 467.312 368.135 466.801 367.123 465.977L366.877 465.777C366.068 465.118 365.469 464.525 365.079 463.998C364.691 463.493 364.465 462.983 364.401 462.469C364.339 461.977 364.413 461.407 364.625 460.76C363.806 461.249 363.026 461.434 362.284 461.313C361.554 461.202 360.829 460.854 360.109 460.267L357.189 457.891C356.861 457.623 356.579 457.414 356.343 457.265C356.121 457.126 355.897 457.038 355.674 457.003L357.896 454.273ZM367.156 459.51C366.775 459.978 366.649 460.39 366.779 460.748C366.91 461.128 367.21 461.509 367.677 461.889L369.801 463.618C370.357 464.071 370.797 464.292 371.12 464.282C371.456 464.282 371.809 464.055 372.179 463.6L372.781 462.861L367.757 458.771L367.156 459.51Z" fill="white"/>
<path d="M368.273 472.247L363.147 477.762L361.052 475.815L363.832 472.825L359.803 469.08L357.174 471.909L355.097 469.978L357.726 467.149L353.698 463.405L350.918 466.395L348.823 464.447L353.949 458.933L368.273 472.247Z" fill="white"/>
<path d="M346.502 466.349C346.898 465.962 347.356 465.765 347.874 465.759C348.393 465.753 348.852 465.954 349.251 466.362C349.661 466.781 349.858 467.25 349.841 467.768C349.835 468.298 349.634 468.757 349.238 469.145C348.842 469.532 348.379 469.723 347.849 469.717C347.33 469.723 346.866 469.517 346.455 469.097C346.056 468.69 345.865 468.227 345.883 467.708C345.9 467.19 346.106 466.737 346.502 466.349Z" fill="white"/>
<path d="M37.1453 398.921L36.6188 395.54L51.1908 391.886L51.763 391.747L51.7593 391.723L51.172 391.765L36.1262 392.375L35.4869 388.269L50.0101 384.301L50.5785 384.138L50.5748 384.114L49.9875 384.156L34.9981 385.129L34.4716 381.747L54.1826 381.227L54.8971 385.816L41.1335 389.419L40.5167 389.589L41.156 389.564L55.3634 388.812L56.0816 393.425L37.1453 398.921Z" fill="white"/>
<path d="M34.2407 378.317L33.6294 370.813L36.4801 370.581L36.8115 374.65L42.2936 374.203L41.9801 370.353L44.8064 370.123L45.1199 373.973L50.602 373.526L50.2706 369.457L53.1213 369.225L53.7326 376.73L34.2407 378.317Z" fill="white"/>
<path d="M52.8583 358.582C52.7284 358.696 52.5251 358.771 52.2482 358.804C51.955 358.838 51.5802 358.856 51.1239 358.859L46.7971 358.879C46.1289 358.882 45.657 359.031 45.3813 359.325C45.1055 359.604 44.9687 359.963 44.9707 360.403L44.9751 361.356L52.871 361.32L52.8869 364.766L33.3307 364.857L33.3104 360.481C33.3045 359.21 33.4466 358.215 33.7366 357.497C34.0266 356.762 34.5375 356.23 35.2693 355.901C35.9849 355.571 36.9945 355.404 38.2983 355.398L38.6161 355.396C39.6591 355.392 40.4987 355.469 41.1351 355.629C41.755 355.773 42.2532 356.023 42.6297 356.38C42.9898 356.721 43.2936 357.208 43.541 357.843C43.8628 356.945 44.3487 356.307 44.9989 355.929C45.6327 355.551 46.4141 355.36 47.343 355.356L51.1076 355.338C51.5313 355.337 51.8816 355.319 52.1585 355.285C52.4191 355.251 52.6469 355.177 52.842 355.062L52.8583 358.582ZM42.3795 360.415C42.3767 359.812 42.2119 359.413 41.8851 359.219C41.5418 359.009 41.0687 358.905 40.4658 358.908L37.7279 358.921C37.0108 358.924 36.5306 359.032 36.2871 359.245C36.0273 359.458 35.8988 359.858 35.9015 360.445L35.9059 361.398L42.3839 361.368L42.3795 360.415Z" fill="white"/>
<path d="M33.407 351.33L33.8021 343.811L36.6583 343.961L36.4441 348.038L41.9367 348.327L42.1394 344.47L44.9712 344.618L44.7685 348.475L50.2612 348.764L50.4754 344.687L53.3316 344.837L52.9365 352.356L33.407 351.33Z" fill="white"/>
<path d="M46.5322 330.816L46.1799 333.26L54.4547 334.453L53.9628 337.865L34.6065 335.074L35.0984 331.662L43.3732 332.855L43.7256 330.412L35.4508 329.219L35.9427 325.807L55.2989 328.598L54.807 332.009L46.5322 330.816Z" fill="white"/>
<path d="M36.7627 321.262L38.2817 313.887L41.083 314.464L40.2594 318.463L45.6466 319.572L46.4258 315.789L49.2032 316.362L48.424 320.145L53.8111 321.254L54.6347 317.256L57.436 317.833L55.9171 325.207L36.7627 321.262Z" fill="white"/>
<path d="M59.1563 311.154C59.0011 311.231 58.7854 311.25 58.5092 311.211C58.2173 311.167 57.8508 311.087 57.4097 310.97L53.2271 309.862C52.5812 309.691 52.0868 309.712 51.7439 309.924C51.4051 310.121 51.1794 310.432 51.0667 310.858L50.8226 311.779L58.4553 313.801L57.5727 317.133L38.6682 312.125L39.7887 307.895C40.1142 306.667 40.5105 305.743 40.9777 305.125C41.449 304.491 42.0809 304.111 42.8733 303.984C43.6499 303.852 44.6684 303.953 45.9287 304.287L46.2359 304.368C47.2441 304.636 48.0346 304.929 48.6072 305.25C49.1683 305.55 49.5841 305.921 49.8546 306.364C50.1136 306.787 50.2798 307.336 50.3534 308.013C50.898 307.23 51.5333 306.741 52.2595 306.546C52.9698 306.346 53.774 306.365 54.672 306.603L58.3111 307.567C58.7207 307.676 59.0636 307.75 59.3397 307.789C59.6001 307.824 59.8394 307.812 60.0577 307.752L59.1563 311.154ZM48.5619 310.194C48.7163 309.611 48.661 309.183 48.396 308.911C48.1194 308.619 47.6897 308.395 47.1068 308.241L44.4602 307.54C43.767 307.356 43.2751 307.335 42.9846 307.478C42.6783 307.616 42.45 307.968 42.2998 308.535L42.0557 309.457L48.3178 311.116L48.5619 310.194Z" fill="white"/>
<path d="M42.2156 299.25L44.5441 292.09L47.264 292.974L46.0014 296.856L51.2321 298.557L52.4265 294.884L55.1232 295.761L53.9287 299.434L59.1593 301.135L60.4219 297.253L63.1418 298.138L60.8133 305.298L42.2156 299.25Z" fill="white"/>
<path d="M50.8695 283.515L49.7681 286.101L47.1366 284.981L50.6801 276.659L53.3116 277.779L52.2198 280.343L67.5815 286.885L66.2311 290.056L50.8695 283.515Z" fill="white"/>
<path d="M71.9446 277.99C70.531 280.836 68.131 281.419 64.7448 279.737L56.9506 275.866C53.5644 274.184 52.5781 271.92 53.9917 269.073C55.4053 266.227 57.8053 265.645 61.1915 267.327L68.9857 271.198C72.3719 272.88 73.3582 275.144 71.9446 277.99ZM67.3397 277.095C67.9089 277.378 68.3538 277.49 68.6743 277.43C69.0021 277.357 69.2602 277.13 69.4487 276.751C69.6372 276.371 69.6582 276.036 69.5116 275.745C69.3723 275.439 69.0181 275.145 68.4488 274.862L58.6404 269.99C58.0566 269.7 57.6008 269.592 57.273 269.666C56.9379 269.718 56.6761 269.934 56.4876 270.313C56.2991 270.693 56.2818 271.039 56.4357 271.352C56.5822 271.643 56.9401 271.93 57.5094 272.213L67.3397 277.095Z" fill="white"/>
<path d="M80.6454 262.32C78.9595 265.014 76.5071 265.354 73.2883 263.339L65.9321 258.735C62.7271 256.73 61.9676 254.38 63.6536 251.686C65.3395 248.992 67.785 248.648 70.99 250.654L73.1243 251.99L71.2568 254.974L68.1692 253.041C67.6028 252.687 67.1529 252.53 66.8195 252.571C66.4947 252.599 66.2199 252.792 65.9951 253.151C65.7703 253.511 65.7123 253.849 65.8209 254.167C65.9382 254.471 66.28 254.8 66.8464 255.155L76.1505 260.978C76.7031 261.324 77.1417 261.483 77.4665 261.456C77.8 261.414 78.0791 261.214 78.3039 260.855C78.5287 260.496 78.5824 260.164 78.4651 259.86C78.3565 259.542 78.0259 259.21 77.4733 258.864L74.365 256.919L76.2326 253.935L78.3462 255.258C81.565 257.272 82.3314 259.627 80.6454 262.32Z" fill="white"/>
<path d="M87.5687 251.56C87.3962 251.576 87.1879 251.518 86.9436 251.383C86.6861 251.239 86.3717 251.034 86.0006 250.768L82.4815 248.251C81.9381 247.862 81.4684 247.706 81.0724 247.784C80.6859 247.848 80.3646 248.059 80.1086 248.417L79.5539 249.192L85.9756 253.786L83.9701 256.59L68.0648 245.211L70.6108 241.652C71.3504 240.618 72.0481 239.895 72.7039 239.483C73.3692 239.057 74.0949 238.925 74.881 239.086C75.6538 239.238 76.5704 239.694 77.6308 240.452L77.8892 240.637C78.7375 241.244 79.3727 241.799 79.7948 242.301C80.2131 242.781 80.4704 243.275 80.5667 243.785C80.6591 244.272 80.6199 244.845 80.4489 245.504C81.2355 244.965 82.0029 244.732 82.7512 244.807C83.4862 244.872 84.2315 245.175 84.987 245.715L88.0488 247.905C88.3934 248.152 88.6878 248.343 88.9321 248.477C89.1632 248.602 89.3914 248.676 89.6168 248.697L87.5687 251.56ZM78.0011 246.909C78.3519 246.419 78.4517 245.999 78.3004 245.65C78.1453 245.279 77.8226 244.918 77.3322 244.567L75.1054 242.974C74.5222 242.557 74.0696 242.363 73.7475 242.393C73.4122 242.414 73.0738 242.663 72.7325 243.14L72.1778 243.915L77.4464 247.684L78.0011 246.909Z" fill="white"/>
<path d="M75.9497 234.414L80.6578 228.538L82.8898 230.327L80.337 233.513L84.6292 236.952L87.0444 233.938L89.2573 235.711L86.8421 238.725L91.1343 242.165L93.6871 238.979L95.9191 240.767L91.211 246.643L75.9497 234.414Z" fill="white"/>
<path d="M84.0833 224.612L87.2792 221.042L103.578 232.156L101.246 234.76L98.5371 232.729L96.9555 234.495L99.2732 236.964L96.9252 239.587L84.0833 224.612ZM96.2269 231.021L88.4621 225.218L87.9943 224.898L88.3806 225.309L95.0039 232.387L96.2269 231.021Z" fill="white"/>
<path d="M92.7084 219.487L90.7212 221.476L88.6981 219.454L95.0916 213.056L97.1147 215.078L95.1448 217.049L106.955 228.851L104.519 231.289L92.7084 219.487Z" fill="white"/>
<path d="M98.5304 209.809L104.138 204.784L106.046 206.914L103.006 209.638L106.677 213.735L109.553 211.157L111.446 213.269L108.569 215.846L112.24 219.943L115.28 217.218L117.189 219.348L111.581 224.373L98.5304 209.809Z" fill="white"/>
<path d="M113.789 197.063L117.627 194.194L131.411 208.307L128.611 210.4L126.356 207.873L124.457 209.293L126.242 212.171L123.422 214.278L113.789 197.063ZM124.429 205.743L117.962 198.521L117.567 198.115L117.864 198.595L122.96 206.841L124.429 205.743Z" fill="white"/>
<path d="M126.506 188.059L129.929 186.02L137.5 195.055L133.184 184.082L136.608 182.043L146.615 198.845L143.969 200.421L138.165 190.676L142.246 201.447L140.86 202.272L133.355 193.54L139.159 203.285L136.513 204.862L126.506 188.059Z" fill="white"/>
<path d="M152.738 195.927C149.904 197.364 147.632 196.396 145.922 193.024L141.987 185.262C140.278 181.89 140.84 179.485 143.675 178.048C146.509 176.611 148.781 177.579 150.491 180.951L154.426 188.713C156.135 192.086 155.573 194.49 152.738 195.927ZM149.582 192.457C149.869 193.024 150.159 193.38 150.451 193.524C150.758 193.661 151.1 193.633 151.478 193.442C151.856 193.25 152.073 192.994 152.13 192.673C152.201 192.344 152.093 191.897 151.806 191.33L146.854 181.562C146.559 180.98 146.258 180.621 145.951 180.484C145.652 180.326 145.313 180.342 144.935 180.534C144.557 180.725 144.336 180.992 144.272 181.335C144.216 181.656 144.331 182.1 144.619 182.667L149.582 192.457Z" fill="white"/>
<path d="M164.247 190.286C164.09 190.211 163.942 190.053 163.802 189.812C163.656 189.556 163.492 189.218 163.311 188.799L161.593 184.828C161.327 184.215 161.005 183.839 160.626 183.702C160.262 183.557 159.877 183.573 159.474 183.747L158.599 184.126L161.734 191.373L158.57 192.741L150.805 174.793L154.821 173.055C155.988 172.55 156.959 172.29 157.733 172.275C158.523 172.253 159.213 172.514 159.803 173.057C160.387 173.586 160.938 174.449 161.455 175.645L161.581 175.937C161.996 176.894 162.254 177.697 162.357 178.345C162.468 178.971 162.434 179.528 162.253 180.014C162.082 180.479 161.753 180.95 161.266 181.427C162.218 181.37 162.996 181.566 163.599 182.016C164.195 182.45 164.678 183.094 165.047 183.947L166.541 187.402C166.71 187.791 166.864 188.106 167.004 188.347C167.137 188.573 167.295 188.754 167.477 188.888L164.247 190.286ZM158.445 181.369C158.998 181.13 159.3 180.822 159.35 180.445C159.409 180.047 159.318 179.571 159.079 179.017L157.992 176.505C157.707 175.846 157.419 175.447 157.127 175.307C156.829 175.152 156.411 175.191 155.873 175.424L154.998 175.802L157.57 181.748L158.445 181.369Z" fill="white"/>
<path d="M163.244 169.58L170.315 166.992L171.298 169.678L167.464 171.081L169.355 176.246L172.982 174.918L173.957 177.581L170.33 178.909L172.221 184.074L176.054 182.671L177.038 185.356L169.967 187.945L163.244 169.58Z" fill="white"/>
<path d="M188.595 182.176C185.522 182.989 183.501 181.56 182.53 177.889L180.31 169.499C179.343 165.844 180.396 163.61 183.468 162.797C186.54 161.984 188.56 163.406 189.527 167.061L190.171 169.495L186.768 170.395L185.836 166.874C185.665 166.228 185.444 165.806 185.173 165.608C184.917 165.406 184.584 165.359 184.174 165.468C183.765 165.576 183.491 165.783 183.353 166.09C183.23 166.392 183.255 166.866 183.426 167.512L186.233 178.123C186.399 178.753 186.611 179.169 186.866 179.371C187.138 179.569 187.478 179.614 187.888 179.505C188.298 179.397 188.564 179.192 188.686 178.89C188.824 178.583 188.81 178.115 188.643 177.485L187.705 173.94L191.109 173.04L191.746 175.45C192.717 179.121 191.667 181.363 188.595 182.176Z" fill="white"/>
<path d="M200.147 179.483C197.029 180.093 195.106 178.542 194.381 174.832L192.712 166.291C191.986 162.58 193.183 160.42 196.302 159.81C199.421 159.2 201.343 160.751 202.068 164.462L203.738 173.003C204.463 176.713 203.266 178.874 200.147 179.483ZM198.056 175.284C198.178 175.908 198.36 176.329 198.602 176.547C198.86 176.762 199.197 176.829 199.613 176.748C200.029 176.667 200.308 176.479 200.449 176.186C200.607 175.89 200.625 175.429 200.503 174.806L198.403 164.057C198.278 163.418 198.086 162.99 197.828 162.775C197.583 162.54 197.253 162.464 196.837 162.545C196.421 162.626 196.136 162.823 195.981 163.136C195.839 163.429 195.829 163.888 195.951 164.512L198.056 175.284Z" fill="white"/>
<path d="M204.526 158.523L207.579 158.12L212.372 168.83L210.899 157.681L213.953 157.278L216.514 176.666L213.46 177.07L208.664 166.336L210.14 177.508L207.086 177.911L204.526 158.523Z" fill="white"/>
<path d="M217.473 156.915L220.546 156.701L224.671 167.685L223.887 156.467L226.96 156.253L228.322 175.761L225.25 175.976L221.124 164.967L221.909 176.209L218.836 176.424L217.473 156.915Z" fill="white"/>
<path d="M231.134 156.136L238.663 156.073L238.687 158.933L234.605 158.967L234.651 164.467L238.513 164.435L238.537 167.27L234.675 167.303L234.722 172.803L238.804 172.768L238.828 175.628L231.299 175.692L231.134 156.136Z" fill="white"/>
<path d="M244.287 176.083C241.113 175.928 239.618 173.954 239.803 170.161L240.225 161.494C240.409 157.717 242.089 155.906 245.263 156.061C248.437 156.216 249.932 158.181 249.748 161.958L249.625 164.473L246.109 164.301L246.287 160.663C246.319 159.996 246.236 159.527 246.037 159.256C245.854 158.986 245.551 158.841 245.128 158.82C244.705 158.799 244.381 158.914 244.157 159.164C243.949 159.415 243.829 159.874 243.796 160.542L243.262 171.505C243.23 172.156 243.305 172.616 243.488 172.886C243.687 173.157 243.998 173.303 244.421 173.323C244.844 173.344 245.16 173.229 245.368 172.978C245.592 172.728 245.72 172.277 245.752 171.626L245.931 167.964L249.447 168.135L249.325 170.626C249.14 174.418 247.461 176.237 244.287 176.083Z" fill="white"/>
<path d="M253.954 159.738L251.158 159.442L251.46 156.598L260.454 157.55L260.153 160.394L257.382 160.101L255.623 176.704L252.195 176.341L253.954 159.738Z" fill="white"/>
<path d="M265.026 158.162L272.462 159.348L272.011 162.173L267.979 161.529L267.113 166.961L270.927 167.569L270.48 170.37L266.666 169.761L265.799 175.193L269.831 175.836L269.38 178.66L261.945 177.474L265.026 158.162Z" fill="white"/>
<path d="M274.356 159.682L278.414 160.581C279.734 160.874 280.727 161.252 281.392 161.717C282.073 162.185 282.49 162.828 282.642 163.646C282.814 164.452 282.752 165.523 282.456 166.86L280.499 175.691C280.207 177.011 279.81 178.008 279.311 178.682C278.83 179.344 278.181 179.751 277.362 179.903C276.548 180.04 275.488 179.963 274.183 179.674L270.126 178.775L274.356 159.682ZM274.791 177.155C275.237 177.254 275.59 177.282 275.849 177.239C276.113 177.181 276.322 177.027 276.478 176.777C276.649 176.532 276.793 176.146 276.909 175.621L279.172 165.406C279.292 164.865 279.327 164.447 279.275 164.152C279.24 163.86 279.105 163.639 278.872 163.487C278.654 163.338 278.315 163.213 277.853 163.111L277.161 162.957L274.052 176.991L274.791 177.155Z" fill="white"/>
<path d="M292.777 184.955C291.241 184.462 290.245 183.645 289.789 182.506C289.333 181.367 289.394 179.898 289.972 178.098L290.383 176.818L293.735 177.894L292.973 180.268C292.773 180.889 292.727 181.353 292.833 181.661C292.94 181.969 293.21 182.193 293.645 182.332C294.064 182.467 294.396 182.445 294.641 182.267C294.907 182.079 295.135 181.69 295.324 181.1L295.661 180.053C295.865 179.417 295.931 178.89 295.86 178.474C295.793 178.041 295.595 177.593 295.265 177.127L293.85 174.978C293.205 174.001 292.793 173.073 292.613 172.193C292.438 171.298 292.53 170.292 292.889 169.175C293.372 167.67 294.126 166.628 295.151 166.05C296.18 165.456 297.44 165.399 298.929 165.877C300.357 166.336 301.321 167.09 301.822 168.141C302.344 169.182 302.361 170.462 301.872 171.983L301.424 173.379L298.096 172.311L298.664 170.542C298.868 169.906 298.914 169.441 298.803 169.149C298.696 168.841 298.441 168.622 298.038 168.492C297.635 168.363 297.302 168.384 297.041 168.557C296.801 168.72 296.594 169.072 296.419 169.616L296.195 170.314C296.011 170.888 295.954 171.383 296.026 171.8C296.102 172.201 296.293 172.622 296.596 173.062L297.996 175.18C298.441 175.871 298.773 176.491 298.99 177.04C299.228 177.578 299.354 178.201 299.367 178.906C299.384 179.597 299.246 180.4 298.952 181.315C297.861 184.713 295.803 185.927 292.777 184.955Z" fill="white"/>
<path d="M301.752 188.165C298.793 187.006 298.003 184.667 299.381 181.146L302.555 173.043C303.933 169.522 306.102 168.341 309.061 169.5C312.021 170.659 312.811 172.998 311.432 176.519L308.259 184.622C306.88 188.143 304.711 189.324 301.752 188.165ZM302.24 183.499C302.008 184.091 301.936 184.544 302.023 184.858C302.125 185.178 302.374 185.416 302.768 185.57C303.163 185.725 303.499 185.716 303.776 185.545C304.068 185.379 304.33 185.001 304.562 184.409L308.555 174.211C308.793 173.604 308.861 173.141 308.759 172.821C308.678 172.491 308.44 172.249 308.045 172.095C307.651 171.94 307.304 171.953 307.006 172.134C306.729 172.306 306.474 172.687 306.243 173.279L302.24 183.499Z" fill="white"/>
<path d="M312.085 192.526C309.199 191.196 308.551 188.807 310.14 185.358L313.772 177.477C315.354 174.043 317.588 172.991 320.474 174.321C323.361 175.651 324.013 178.033 322.43 181.467L321.377 183.753L318.179 182.28L319.704 178.972C319.983 178.365 320.082 177.899 319.998 177.574C319.93 177.255 319.703 177.007 319.318 176.83C318.934 176.652 318.59 176.638 318.289 176.786C318.002 176.941 317.719 177.322 317.439 177.929L312.846 187.897C312.573 188.489 312.471 188.945 312.539 189.263C312.623 189.589 312.857 189.84 313.241 190.018C313.626 190.195 313.962 190.206 314.249 190.051C314.55 189.903 314.837 189.533 315.11 188.941L316.645 185.61L319.842 187.084L318.798 189.348C317.209 192.797 314.972 193.856 312.085 192.526Z" fill="white"/>
<path d="M327.657 178.061L330.716 179.65L321.699 197.004L318.64 195.415L327.657 178.061Z" fill="white"/>
<path d="M334.184 181.5L340.707 185.26L339.279 187.738L335.742 185.7L332.996 190.465L336.342 192.394L334.926 194.85L331.58 192.922L328.833 197.687L332.37 199.726L330.942 202.204L324.418 198.444L334.184 181.5Z" fill="white"/>
<path d="M341.748 189.276L339.386 187.751L340.939 185.348L348.535 190.258L346.983 192.66L344.642 191.147L335.58 205.17L332.685 203.299L341.748 189.276Z" fill="white"/>
<path d="M346.107 204.033L350.854 191.754L353.694 193.834L350.134 201.346L349.919 201.764L350.232 201.418L356.298 195.74L359.138 197.819L348.888 206.069L344.845 211.592L342.064 209.556L346.107 204.033Z" fill="white"/>
<path d="M366.726 203.885L370.107 206.889C371.374 208.015 372.006 209.144 372.003 210.275C372.011 211.395 371.501 212.533 370.473 213.69L370.067 214.147C369.385 214.914 368.697 215.382 368.002 215.55C367.308 215.718 366.572 215.663 365.794 215.386C366.186 216.171 366.314 216.96 366.176 217.753C366.061 218.545 365.613 219.379 364.834 220.256L364.444 220.695C363.177 222.12 361.984 222.923 360.863 223.105C359.753 223.274 358.529 222.763 357.189 221.572L353.735 218.503L366.726 203.885ZM358.76 219.142C359.137 219.478 359.45 219.69 359.698 219.779C359.956 219.857 360.209 219.83 360.455 219.7C360.701 219.57 361.003 219.304 361.36 218.902L362.676 217.422C363.152 216.886 363.384 216.417 363.372 216.013C363.372 215.621 363.128 215.208 362.641 214.775L362.093 214.288L358.212 218.655L358.76 219.142ZM364.504 212.605C364.931 212.984 365.322 213.168 365.68 213.159C366.06 213.148 366.472 212.893 366.916 212.393L368.02 211.151C368.486 210.627 368.698 210.205 368.656 209.884C368.637 209.562 368.396 209.195 367.933 208.784L367.403 208.313L363.993 212.15L364.504 212.605Z" fill="white"/>
<path d="M368.609 222.81L375.174 211.4L377.664 213.888L372.999 220.769L372.722 221.149L373.085 220.855L379.946 216.169L382.436 218.657L371.047 225.247L366.209 230.088L363.771 227.652L368.609 222.81Z" fill="white"/>
<path d="M377.261 242.689C376.229 241.448 375.827 240.225 376.053 239.019C376.28 237.813 377.12 236.606 378.573 235.397L379.607 234.537L381.858 237.244L379.941 238.838C379.44 239.255 379.151 239.622 379.076 239.939C379.001 240.256 379.109 240.59 379.401 240.941C379.682 241.279 379.974 241.439 380.276 241.421C380.602 241.404 381.003 241.198 381.479 240.802L382.325 240.099C382.838 239.672 383.177 239.263 383.34 238.873C383.516 238.472 383.589 237.987 383.561 237.418L383.519 234.845C383.5 233.674 383.65 232.67 383.97 231.831C384.302 230.982 384.92 230.183 385.822 229.432C387.037 228.421 388.232 227.947 389.407 228.008C390.594 228.06 391.688 228.687 392.689 229.89C393.647 231.042 394.056 232.197 393.915 233.353C393.797 234.511 393.124 235.6 391.896 236.621L390.769 237.559L388.533 234.872L389.962 233.684C390.476 233.256 390.764 232.889 390.827 232.583C390.902 232.266 390.804 231.944 390.533 231.618C390.263 231.293 389.971 231.133 389.658 231.139C389.367 231.147 389.003 231.333 388.565 231.698L388.001 232.167C387.537 232.552 387.224 232.94 387.061 233.33C386.91 233.71 386.845 234.167 386.865 234.701L386.91 237.239C386.915 238.061 386.862 238.763 386.751 239.343C386.663 239.925 386.435 240.517 386.067 241.12C385.712 241.712 385.165 242.315 384.425 242.93C381.681 245.212 379.293 245.132 377.261 242.689Z" fill="white"/>
<path d="M396.896 235.488L399.275 238.746C400.092 239.865 400.573 240.855 400.718 241.717C400.877 242.57 400.702 243.394 400.193 244.19C399.707 244.989 398.839 245.845 397.588 246.758L396.976 247.205C395.739 248.108 394.659 248.674 393.737 248.904C392.825 249.146 391.968 249.065 391.168 248.661C390.391 248.26 389.599 247.506 388.792 246.401L388.446 245.927L383.135 249.805L381.102 247.021L396.896 235.488ZM391.173 245.267C391.49 245.702 391.842 245.908 392.231 245.887C392.642 245.87 393.143 245.645 393.735 245.212L396.677 243.064C397.269 242.632 397.623 242.232 397.739 241.865C397.877 241.502 397.788 241.103 397.47 240.669L396.836 239.8L390.538 244.399L391.173 245.267Z" fill="white"/>
<path d="M390.564 260.629C390.612 260.462 390.744 260.29 390.959 260.113C391.188 259.927 391.495 259.711 391.879 259.464L395.52 257.126C396.082 256.765 396.4 256.386 396.475 255.989C396.558 255.607 396.481 255.23 396.243 254.86L395.728 254.058L389.084 258.325L387.221 255.425L403.676 244.856L406.041 248.537C406.728 249.607 407.142 250.523 407.282 251.284C407.432 252.06 407.286 252.783 406.845 253.454C406.418 254.115 405.656 254.799 404.559 255.503L404.292 255.675C403.414 256.239 402.664 256.624 402.041 256.83C401.441 257.041 400.886 257.098 400.377 256.998C399.89 256.904 399.372 256.656 398.823 256.253C399.033 257.183 398.965 257.982 398.62 258.65C398.287 259.309 397.73 259.889 396.949 260.392L393.781 262.426C393.425 262.655 393.139 262.858 392.923 263.035C392.722 263.204 392.569 263.389 392.466 263.59L390.564 260.629ZM398.423 253.459C398.749 253.967 399.102 254.215 399.482 254.203C399.884 254.196 400.339 254.03 400.847 253.704L403.15 252.224C403.754 251.837 404.101 251.488 404.192 251.178C404.297 250.858 404.191 250.452 403.874 249.958L403.358 249.156L397.908 252.657L398.423 253.459Z" fill="white"/>
<path d="M410.782 256.176L414.487 262.73L411.998 264.138L409.989 260.584L405.201 263.291L407.101 266.654L404.633 268.049L402.732 264.687L397.944 267.394L399.953 270.948L397.463 272.355L393.758 265.801L410.782 256.176Z" fill="white"/>
<path d="M416.944 267.538L419.062 271.836L402.665 282.804L401.12 279.668L404.016 277.914L402.968 275.787L399.812 277.014L398.257 273.857L416.944 267.538ZM406.463 276.408L414.746 271.373L415.218 271.059L414.692 271.264L405.653 274.764L406.463 276.408Z" fill="white"/>
<path d="M420.685 275.214L422.292 279.046C422.814 280.294 423.078 281.323 423.082 282.134C423.093 282.96 422.808 283.672 422.227 284.269C421.668 284.874 420.757 285.441 419.495 285.97L411.153 289.466C409.905 289.989 408.862 290.241 408.023 290.221C407.206 290.21 406.499 289.915 405.902 289.334C405.321 288.748 404.772 287.838 404.255 286.606L402.649 282.773L420.685 275.214ZM406.664 285.649C406.84 286.07 407.021 286.374 407.205 286.562C407.405 286.743 407.652 286.825 407.945 286.808C408.245 286.807 408.642 286.702 409.138 286.494L418.788 282.45C419.299 282.236 419.66 282.022 419.872 281.81C420.089 281.613 420.193 281.375 420.182 281.097C420.178 280.833 420.084 280.484 419.902 280.048L419.628 279.394L406.371 284.95L406.664 285.649Z" fill="white"/>
<path d="M425.45 286.89L426.635 290.127L408.27 296.85L407.085 293.613L425.45 286.89Z" fill="white"/>
<path d="M427.866 293.455L428.779 296.396L419.033 302.929L429.772 299.595L430.685 302.537L412.008 308.334L411.095 305.393L420.865 298.853L410.102 302.194L409.189 299.253L427.866 293.455Z" fill="white"/>
<path d="M413.233 314.022C412.916 312.724 413.126 311.591 413.863 310.623C414.603 309.67 415.828 308.986 417.538 308.568L426.183 306.459C429.856 305.563 432.069 306.658 432.823 309.745C433.576 312.833 432.116 314.825 428.443 315.721L426.163 316.277L425.329 312.857L428.701 312.034C429.35 311.876 429.776 311.663 429.979 311.395C430.186 311.144 430.239 310.812 430.139 310.4C430.039 309.989 429.837 309.711 429.533 309.567C429.233 309.439 428.759 309.454 428.11 309.612L417.447 312.214C416.829 312.365 416.409 312.568 416.186 312.824C415.979 313.075 415.928 313.415 416.032 313.843C416.144 314.302 416.356 314.586 416.668 314.694C416.979 314.802 417.452 314.779 418.085 314.625L421.125 313.883L420.829 312.672L423.394 312.046L424.524 316.677L414.716 319.07L414.351 317.574L415.529 316.834C414.319 316.274 413.553 315.337 413.233 314.022Z" fill="white"/>
<path d="M435.994 326.094L436.552 330.089C436.744 331.46 436.701 332.561 436.422 333.39C436.159 334.216 435.616 334.86 434.792 335.321C433.986 335.796 432.816 336.14 431.283 336.355L430.533 336.46C429.015 336.672 427.796 336.662 426.875 336.429C425.956 336.212 425.239 335.736 424.725 335.002C424.23 334.281 423.887 333.243 423.697 331.887L423.616 331.306L417.103 332.217L416.626 328.804L435.994 326.094ZM426.331 332.012C426.406 332.545 426.619 332.894 426.971 333.058C427.342 333.237 427.89 333.275 428.616 333.174L432.224 332.669C432.95 332.567 433.451 332.382 433.726 332.113C434.019 331.858 434.129 331.464 434.054 330.932L433.905 329.867L426.182 330.947L426.331 332.012Z" fill="white"/>
<path d="M418.146 343.258C417.888 340.09 419.643 338.353 423.411 338.046L432.085 337.34C435.854 337.033 437.867 338.463 438.125 341.63C438.383 344.798 436.628 346.535 432.859 346.842L424.185 347.548C420.417 347.855 418.404 346.425 418.146 343.258ZM422.552 341.648C421.919 341.7 421.48 341.833 421.236 342.05C420.993 342.282 420.889 342.609 420.923 343.031C420.958 343.454 421.113 343.752 421.389 343.926C421.666 344.116 422.121 344.185 422.754 344.133L433.67 343.244C434.32 343.191 434.766 343.049 435.009 342.816C435.269 342.599 435.382 342.279 435.347 341.857C435.313 341.434 435.149 341.129 434.856 340.94C434.58 340.766 434.125 340.705 433.492 340.757L422.552 341.648Z" fill="white"/>
<path d="M418.796 355.887C418.764 354.274 419.213 353.067 420.142 352.266C421.072 351.465 422.482 351.045 424.372 351.008L425.716 350.981L425.786 354.5L423.293 354.55C422.641 354.563 422.187 354.67 421.93 354.871C421.674 355.071 421.55 355.4 421.559 355.856C421.568 356.296 421.696 356.603 421.944 356.777C422.208 356.968 422.65 357.057 423.27 357.044L424.369 357.023C425.037 357.009 425.557 356.901 425.928 356.698C426.315 356.495 426.675 356.162 427.008 355.699L428.581 353.662C429.296 352.735 430.04 352.044 430.814 351.588C431.603 351.133 432.585 350.893 433.758 350.87C435.338 350.838 436.568 351.213 437.448 351.994C438.344 352.775 438.807 353.948 438.838 355.512C438.868 357.011 438.467 358.168 437.636 358.983C436.821 359.814 435.616 360.246 434.019 360.278L432.552 360.307L432.483 356.812L434.34 356.775C435.008 356.762 435.463 356.655 435.703 356.454C435.96 356.254 436.084 355.942 436.076 355.518C436.067 355.094 435.939 354.787 435.69 354.596C435.459 354.422 435.058 354.34 434.487 354.351L433.754 354.366C433.151 354.378 432.665 354.486 432.294 354.689C431.939 354.891 431.603 355.208 431.286 355.638L429.736 357.649C429.228 358.295 428.749 358.81 428.3 359.194C427.868 359.593 427.32 359.914 426.657 360.156C426.01 360.397 425.205 360.527 424.244 360.546C420.676 360.617 418.86 359.064 418.796 355.887Z" fill="white"/>
<path d="M438.612 361.923L438.522 365.368L418.973 364.862L419.062 361.417L438.612 361.923Z" fill="white"/>
<path d="M435.495 369.662L435.696 366.858L438.549 367.063L437.903 376.084L435.05 375.88L435.249 373.1L418.596 371.908L418.842 368.47L435.495 369.662Z" fill="white"/>
<path d="M437.598 379.365L437.209 382.79L417.778 380.583L418.167 377.158L437.598 379.365Z" fill="white"/>
<path d="M436.832 386.141L436.277 389.617L420.363 388.513L419.796 388.497L420.343 388.634L435.811 392.538L435.26 395.99L416.356 390.35L417.111 385.618L436.832 386.141Z" fill="white"/>
<path d="M434.97 397.174L434.275 400.55L415.121 396.605L415.816 393.229L434.97 397.174Z" fill="white"/>
<path d="M430.601 404.056L431.291 401.331L434.064 402.032L431.845 410.801L429.072 410.099L429.756 407.398L413.57 403.302L414.415 399.961L430.601 404.056Z" fill="white"/>
<path d="M417.879 413.472L431.031 414.052L429.967 417.408L421.711 416.431L421.246 416.361L421.674 416.548L428.991 420.483L427.928 423.839L416.837 416.758L410.313 414.689L411.354 411.404L417.879 413.472Z" fill="white"/>
<path d="M31.7605 254.774L33.4451 251.608L51.41 261.165L49.7254 264.332L31.7605 254.774Z" fill="white"/>
<path d="M34.5086 249.381L36.6371 245.822L48.0331 250.357L38.661 242.439L40.7894 238.881L58.2526 249.327L56.6073 252.078L46.4787 246.019L55.5366 253.868L54.6748 255.308L43.4884 251.018L53.6171 257.076L51.9718 259.827L34.5086 249.381Z" fill="white"/>
<path d="M43.0546 235.256L45.4267 231.793C46.2414 230.604 47.0466 229.789 47.8424 229.348C48.6242 228.897 49.4935 228.783 50.4501 229.007C51.4024 229.207 52.5431 229.762 53.8721 230.673L54.5226 231.118C55.8376 232.019 56.7673 232.883 57.3119 233.708C57.866 234.519 58.0832 235.387 57.9633 236.312C57.839 237.214 57.3743 238.252 56.5692 239.427L56.2241 239.931L61.8688 243.798L59.8417 246.757L43.0546 235.256ZM54.6324 237.484C54.9487 237.022 55.0292 236.605 54.8741 236.231C54.7145 235.834 54.3199 235.42 53.6904 234.988L50.5638 232.846C49.9343 232.415 49.4195 232.206 49.0195 232.22C48.6152 232.21 48.2548 232.436 47.9385 232.898L47.306 233.821L53.9998 238.407L54.6324 237.484Z" fill="white"/>
<path d="M69.2915 233.868C67.2788 236.492 64.7118 236.606 61.5902 234.212L54.4053 228.7C51.2838 226.306 50.7294 223.797 52.742 221.173C54.7546 218.549 57.3217 218.435 60.4432 220.829L67.6281 226.341C70.7497 228.735 71.3041 231.245 69.2915 233.868ZM64.7682 232.033C65.2929 232.436 65.7249 232.639 66.064 232.643C66.4134 232.633 66.7223 232.453 66.9907 232.103C67.259 231.753 67.3475 231.415 67.2561 231.089C67.175 230.749 66.8721 230.377 66.3473 229.975L57.3057 223.039C56.7675 222.626 56.3236 222.425 55.9742 222.434C55.6216 222.42 55.3111 222.588 55.0428 222.938C54.7744 223.288 54.6875 223.638 54.7821 223.988C54.8735 224.315 55.1816 224.68 55.7063 225.082L64.7682 232.033Z" fill="white"/>
<path d="M77.64 223.189C77.4598 223.19 77.2494 223.11 77.0089 222.947C76.7556 222.774 76.4492 222.532 76.0896 222.222L72.6799 219.281C72.1534 218.827 71.6813 218.622 71.2637 218.665C70.8571 218.695 70.5043 218.883 70.2053 219.23L69.5575 219.981L75.7796 225.347L73.4374 228.063L58.0266 214.774L61 211.326C61.8638 210.324 62.6549 209.64 63.3733 209.275C64.1028 208.896 64.8672 208.827 65.6666 209.069C66.4532 209.299 67.3601 209.857 68.3875 210.743L68.6379 210.959C69.4598 211.668 70.0659 212.303 70.456 212.863C70.8443 213.399 71.0643 213.936 71.1161 214.473C71.1661 214.987 71.0714 215.577 70.8322 216.244C71.6981 215.759 72.5153 215.59 73.2837 215.738C74.0392 215.874 74.783 216.258 75.515 216.89L78.4816 219.448C78.8155 219.736 79.1027 219.961 79.3431 220.123C79.5708 220.275 79.8004 220.372 80.032 220.415L77.64 223.189ZM68.1634 217.469C68.5731 216.994 68.716 216.569 68.592 216.193C68.4663 215.793 68.1659 215.389 67.6907 214.979L65.5332 213.119C64.9681 212.631 64.5173 212.388 64.1807 212.389C63.8313 212.379 63.4572 212.605 63.0585 213.067L62.4107 213.818L67.5155 218.22L68.1634 217.469Z" fill="white"/>
<path d="M69.9604 205.721L67.9352 207.831L65.7877 205.771L72.3036 198.98L74.4511 201.04L72.4435 203.133L84.9794 215.161L82.4963 217.749L69.9604 205.721Z" fill="white"/>
<path d="M76.606 194.763L80.2428 191.353L96.1288 204.352L93.4755 206.84L90.8517 204.489L89.0519 206.176L91.2303 208.946L88.5584 211.451L76.606 194.763ZM88.612 202.509L81.0899 195.789L80.6341 195.414L80.9972 195.876L87.2203 203.814L88.612 202.509Z" fill="white"/>
<path d="M83.4164 188.396L85.8738 186.338L96.057 193.073L88.5458 184.101L91.0032 182.044L104.066 197.646L101.609 199.704L91.4093 192.95L98.9369 201.941L96.4794 203.998L83.4164 188.396Z" fill="white"/>
<path d="M96.981 181.126L94.6432 182.884L92.8543 180.506L100.376 174.849L102.165 177.227L99.8472 178.97L110.29 192.854L107.424 195.01L96.981 181.126Z" fill="white"/>
<path d="M109.594 168.503L112.611 166.565L123.608 183.687L120.59 185.625L109.594 168.503Z" fill="white"/>
<path d="M129.412 180.441C127.964 181.29 126.64 181.496 125.44 181.06C124.24 180.623 123.143 179.557 122.148 177.86L121.44 176.653L124.599 174.8L125.912 177.038C126.255 177.623 126.583 177.981 126.896 178.112C127.209 178.243 127.57 178.189 127.98 177.948C128.374 177.717 128.588 177.444 128.62 177.13C128.659 176.793 128.515 176.347 128.189 175.791L127.61 174.804C127.258 174.204 126.895 173.787 126.523 173.554C126.141 173.306 125.656 173.148 125.066 173.081L122.417 172.689C121.212 172.511 120.206 172.187 119.4 171.716C118.584 171.231 117.868 170.462 117.25 169.409C116.418 167.99 116.133 166.683 116.395 165.487C116.648 164.277 117.477 163.26 118.881 162.436C120.227 161.647 121.481 161.422 122.644 161.763C123.813 162.08 124.818 162.955 125.659 164.388L126.431 165.705L123.293 167.545L122.315 165.878C121.963 165.278 121.635 164.92 121.331 164.803C121.018 164.672 120.672 164.718 120.292 164.941C119.911 165.164 119.698 165.437 119.651 165.759C119.61 166.059 119.74 166.464 120.04 166.976L120.426 167.634C120.744 168.176 121.089 168.563 121.462 168.796C121.826 169.015 122.284 169.159 122.836 169.229L125.449 169.613C126.294 169.746 127.005 169.919 127.582 170.131C128.165 170.32 128.734 170.655 129.291 171.134C129.839 171.599 130.366 172.263 130.872 173.126C132.751 176.33 132.264 178.768 129.412 180.441Z" fill="white"/>
<path d="M139.291 174.972C137.798 175.741 136.465 175.874 135.291 175.372C134.117 174.871 133.08 173.745 132.179 171.996L131.539 170.753L134.795 169.076L135.983 171.382C136.294 171.986 136.602 172.361 136.907 172.509C137.212 172.657 137.575 172.623 137.998 172.405C138.405 172.196 138.633 171.935 138.682 171.624C138.739 171.289 138.62 170.835 138.325 170.263L137.801 169.245C137.482 168.627 137.144 168.191 136.784 167.937C136.417 167.669 135.941 167.485 135.356 167.385L132.733 166.848C131.539 166.604 130.552 166.225 129.773 165.711C128.985 165.182 128.312 164.375 127.753 163.289C127 161.827 126.787 160.506 127.115 159.326C127.434 158.132 128.317 157.162 129.765 156.417C131.152 155.703 132.417 155.547 133.559 155.951C134.709 156.332 135.664 157.261 136.425 158.738L137.123 160.095L133.89 161.76L133.005 160.042C132.686 159.423 132.378 159.048 132.081 158.915C131.776 158.767 131.427 158.794 131.035 158.996C130.643 159.197 130.415 159.458 130.351 159.777C130.294 160.074 130.401 160.486 130.673 161.013L131.022 161.692C131.309 162.25 131.632 162.655 131.992 162.909C132.344 163.148 132.793 163.317 133.34 163.416L135.929 163.943C136.765 164.123 137.466 164.334 138.03 164.578C138.601 164.799 139.152 165.164 139.681 165.673C140.203 166.168 140.692 166.86 141.15 167.749C142.851 171.051 142.231 173.458 139.291 174.972Z" fill="white"/>
<path d="M149.004 170.249C147.474 170.941 146.146 171.029 145.02 170.514C143.895 169.999 142.927 168.846 142.117 167.053L136 153.516L139.337 152.008L145.884 166.495C146.156 167.098 146.445 167.489 146.749 167.668C147.046 167.831 147.403 167.819 147.82 167.63C148.222 167.448 148.46 167.192 148.534 166.861C148.616 166.508 148.521 166.03 148.248 165.427L141.702 150.94L145.016 149.442L151.134 162.979C151.944 164.771 152.17 166.26 151.812 167.445C151.47 168.623 150.534 169.558 149.004 170.249Z" fill="white"/>
<path d="M148.175 148.103L155.479 145.271L156.555 148.046L152.594 149.581L154.663 154.917L158.41 153.465L159.477 156.216L155.73 157.669L157.798 163.005L161.759 161.469L162.835 164.244L155.53 167.076L148.175 148.103Z" fill="white"/>
<path d="M169.201 162.288C167.609 162.82 166.271 162.748 165.187 162.074C164.103 161.399 163.249 160.129 162.626 158.263L162.182 156.936L165.656 155.775L166.479 158.236C166.694 158.879 166.941 159.297 167.22 159.49C167.499 159.683 167.863 159.704 168.314 159.553C168.748 159.408 169.013 159.186 169.11 158.885C169.216 158.563 169.168 158.097 168.964 157.486L168.601 156.4C168.38 155.741 168.112 155.258 167.795 154.953C167.473 154.631 167.031 154.377 166.467 154.19L163.957 153.259C162.814 152.836 161.897 152.311 161.205 151.685C160.507 151.042 159.965 150.141 159.578 148.983C159.056 147.423 159.047 146.085 159.55 144.969C160.048 143.837 161.069 143.014 162.613 142.497C164.092 142.003 165.366 142.042 166.434 142.615C167.512 143.166 168.314 144.23 168.841 145.806L169.325 147.254L165.875 148.407L165.262 146.573C165.042 145.914 164.795 145.496 164.521 145.319C164.242 145.126 163.894 145.1 163.476 145.24C163.058 145.379 162.792 145.602 162.68 145.908C162.578 146.192 162.622 146.616 162.81 147.179L163.052 147.902C163.25 148.498 163.508 148.948 163.825 149.253C164.136 149.542 164.555 149.778 165.08 149.96L167.558 150.875C168.358 151.18 169.018 151.496 169.538 151.822C170.069 152.128 170.558 152.572 171.003 153.156C171.443 153.725 171.822 154.483 172.139 155.432C173.316 158.954 172.337 161.239 169.201 162.288Z" fill="white"/>
<path d="M177.382 138.321L180.863 137.46L185.037 154.324L189.235 153.285L189.95 156.174L182.271 158.074L177.382 138.321Z" fill="white"/>
<path d="M187.133 135.991L190.644 135.257L194.811 155.175L191.301 155.909L187.133 135.991Z" fill="white"/>
<path d="M199.418 145.608L198.991 145.678L200.378 154.137L196.838 154.717L193.546 134.636L197.086 134.056L198.472 142.515L198.899 142.445L199.872 133.599L203.537 132.998L202.095 143.545L206.829 153.079L203.164 153.68L199.418 145.608Z" fill="white"/>
<path d="M206.083 132.659L213.869 131.788L214.2 134.746L209.978 135.218L210.614 140.906L214.608 140.459L214.936 143.392L210.942 143.838L211.577 149.526L215.799 149.054L216.13 152.012L208.344 152.882L206.083 132.659Z" fill="white"/>
<path d="M229.686 151.443C228.008 151.494 226.747 151.04 225.903 150.082C225.06 149.124 224.608 147.661 224.548 145.695L224.506 144.297L228.167 144.185L228.246 146.779C228.266 147.457 228.383 147.928 228.594 148.193C228.806 148.458 229.149 148.584 229.624 148.569C230.081 148.555 230.399 148.418 230.578 148.158C230.773 147.881 230.861 147.42 230.841 146.776L230.807 145.632C230.785 144.937 230.667 144.398 230.452 144.014C230.236 143.613 229.886 143.242 229.4 142.901L227.264 141.286C226.292 140.553 225.564 139.786 225.082 138.986C224.599 138.17 224.339 137.151 224.302 135.931C224.252 134.286 224.628 133.003 225.432 132.079C226.234 131.138 227.449 130.643 229.076 130.594C230.636 130.546 231.844 130.951 232.701 131.807C233.575 132.645 234.037 133.895 234.088 135.556L234.134 137.082L230.499 137.193L230.44 135.26C230.419 134.565 230.303 134.094 230.091 133.846C229.88 133.581 229.554 133.455 229.113 133.468C228.672 133.482 228.354 133.619 228.158 133.879C227.979 134.122 227.899 134.54 227.917 135.133L227.94 135.896C227.959 136.523 228.076 137.029 228.291 137.412C228.506 137.779 228.839 138.125 229.29 138.451L231.4 140.041C232.077 140.563 232.618 141.056 233.023 141.518C233.443 141.963 233.783 142.53 234.041 143.218C234.299 143.888 234.443 144.724 234.474 145.724C234.587 149.436 232.991 151.342 229.686 151.443Z" fill="white"/>
<path d="M240.739 151.398C237.433 151.315 235.83 149.307 235.928 145.374L236.155 136.321C236.254 132.388 237.956 130.463 241.262 130.546C244.568 130.629 246.171 132.637 246.072 136.57L245.845 145.623C245.747 149.555 244.044 151.48 240.739 151.398ZM239.56 146.661C239.543 147.322 239.633 147.791 239.83 148.067C240.044 148.344 240.371 148.488 240.812 148.499C241.252 148.51 241.578 148.382 241.788 148.116C242.015 147.85 242.137 147.387 242.154 146.726L242.439 135.334C242.456 134.656 242.358 134.178 242.145 133.902C241.948 133.608 241.63 133.456 241.189 133.445C240.748 133.434 240.414 133.57 240.187 133.852C239.976 134.119 239.863 134.582 239.846 135.243L239.56 146.661Z" fill="white"/>
<path d="M252.532 151.995C249.236 151.728 247.748 149.625 248.067 145.687L248.797 136.687C249.115 132.766 250.922 130.939 254.218 131.206C257.514 131.473 259.003 133.568 258.685 137.489L258.473 140.1L254.822 139.804L255.129 136.027C255.185 135.334 255.114 134.843 254.916 134.555C254.735 134.268 254.425 134.106 253.986 134.071C253.546 134.035 253.206 134.144 252.964 134.396C252.739 134.65 252.599 135.124 252.543 135.817L251.619 147.2C251.564 147.876 251.627 148.358 251.808 148.645C252.006 148.933 252.325 149.095 252.764 149.131C253.204 149.166 253.536 149.057 253.76 148.803C254.002 148.55 254.15 148.086 254.205 147.41L254.514 143.607L258.165 143.903L257.955 146.489C257.635 150.427 255.828 152.263 252.532 151.995Z" fill="white"/>
<path d="M262.642 132.278L266.2 132.729L263.645 152.917L260.087 152.466L262.642 132.278Z" fill="white"/>
<path d="M271.686 133.516L276.602 134.346L275.872 154.86L272.286 154.254L272.569 150.742L270.136 150.331L269.251 153.742L265.639 153.132L271.686 133.516ZM272.789 147.761L273.584 137.706L273.606 137.116L273.459 137.685L270.908 147.444L272.789 147.761Z" fill="white"/>
<path d="M281.484 135.261L284.987 136.032L281.255 152.999L285.478 153.928L284.839 156.835L277.113 155.135L281.484 135.261Z" fill="white"/>
<path d="M298.437 139.401L301.879 140.409L296.156 159.937L292.715 158.929L298.437 139.401Z" fill="white"/>
<path d="M304.496 141.133L307.527 142.175L307.02 154.373L310.822 143.307L313.853 144.349L307.24 163.593L304.209 162.552L304.724 150.329L300.913 161.419L297.882 160.377L304.496 141.133Z" fill="white"/>
<path d="M317.257 145.597L324.529 148.51L323.423 151.273L319.48 149.693L317.352 155.006L321.082 156.501L319.985 159.24L316.255 157.745L314.127 163.058L318.07 164.638L316.963 167.4L309.691 164.488L317.257 145.597Z" fill="white"/>
<path d="M324.22 167.74C324.619 167.926 324.969 167.939 325.268 167.778C325.582 167.625 325.878 167.249 326.157 166.649L330.958 156.314C331.244 155.699 331.344 155.222 331.258 154.883C331.195 154.536 330.964 154.269 330.564 154.084C330.164 153.898 329.804 153.889 329.482 154.058C329.183 154.218 328.895 154.598 328.616 155.198L323.804 165.556C323.525 166.155 323.421 166.621 323.491 166.953C323.577 167.292 323.82 167.554 324.22 167.74ZM324.801 154.716C326.459 151.148 328.787 150.06 331.786 151.454C334.785 152.847 335.455 155.327 333.798 158.895L329.983 167.108C328.489 170.322 326.453 171.526 323.873 170.72C324.702 171.311 325.386 172.031 325.926 172.88L324.769 175.372C324.118 174.359 323.473 173.554 322.833 172.958C322.209 172.369 321.417 171.842 320.455 171.376L321.421 169.357C319.809 167.916 319.664 165.773 320.986 162.928L324.801 154.716Z" fill="white"/>
<path d="M334.252 175.935C332.773 175.141 331.895 174.14 331.619 172.933C331.343 171.727 331.671 170.257 332.601 168.524L339.629 155.436L342.856 157.169L335.335 171.175C335.022 171.758 334.887 172.224 334.93 172.575C334.981 172.91 335.208 173.186 335.612 173.403C336 173.611 336.348 173.644 336.656 173.501C336.986 173.352 337.308 172.985 337.621 172.403L345.142 158.397L348.347 160.117L341.319 173.205C340.388 174.938 339.344 176.023 338.185 176.459C337.042 176.904 335.731 176.729 334.252 175.935Z" fill="white"/>
<path d="M353.468 163.095L357.727 165.687L349.449 184.471L346.342 182.58L347.907 179.423L345.799 178.14L343.713 180.98L340.585 179.075L353.468 163.095ZM349.215 176.735L353.679 167.69L353.918 167.15L353.57 167.624L347.586 175.743L349.215 176.735Z" fill="white"/>
<path d="M361.876 168.324L364.851 170.328L355.142 184.735L358.728 187.151L357.065 189.619L350.504 185.199L361.876 168.324Z" fill="white"/>
<path d="M370.161 174.01L373.056 176.127L361.045 192.553L358.15 190.436L370.161 174.01Z" fill="white"/>
<path d="M374.938 181.273L372.644 179.458L374.491 177.124L381.87 182.966L380.023 185.3L377.75 183.5L366.966 197.121L364.154 194.895L374.938 181.273Z" fill="white"/>
<path d="M378.598 197.557L384.679 185.283L387.426 187.707L383.025 195.154L382.763 195.567L383.121 195.238L389.944 189.928L392.69 192.352L381.287 199.93L376.575 205.27L373.886 202.897L378.598 197.557Z" fill="white"/>
<path d="M378.2 208.886C378.735 209.185 379.297 209.369 379.887 209.438C380.476 209.508 381.014 209.423 381.5 209.183C381.189 209.238 380.913 209.233 380.672 209.167C380.431 209.125 380.194 208.993 379.96 208.771C379.604 208.432 379.426 208.028 379.427 207.56C379.439 207.08 379.668 206.607 380.112 206.14C380.533 205.698 381.007 205.471 381.535 205.458C382.086 205.444 382.583 205.648 383.025 206.069C383.504 206.525 383.72 207.036 383.674 207.6C383.628 208.165 383.342 208.724 382.815 209.277C382.184 209.94 381.348 210.338 380.308 210.471C379.268 210.629 378.156 210.53 376.972 210.175L378.2 208.886Z" fill="white"/>
<path d="M390.899 219.94C389.774 218.694 389.304 217.44 389.488 216.176C389.672 214.913 390.495 213.622 391.955 212.304L392.993 211.366L395.448 214.085L393.522 215.824C393.019 216.278 392.734 216.672 392.669 217.005C392.604 217.338 392.731 217.68 393.049 218.033C393.356 218.372 393.666 218.526 393.98 218.494C394.318 218.464 394.726 218.232 395.204 217.8L396.054 217.033C396.57 216.567 396.904 216.128 397.057 215.716C397.223 215.292 397.279 214.784 397.225 214.193L397.073 211.52C397.003 210.304 397.117 209.253 397.414 208.368C397.724 207.471 398.332 206.614 399.238 205.795C400.459 204.693 401.681 204.149 402.905 204.163C404.142 204.166 405.305 204.772 406.396 205.98C407.442 207.138 407.916 208.321 407.818 209.528C407.745 210.737 407.091 211.899 405.858 213.012L404.725 214.035L402.287 211.336L403.722 210.04C404.238 209.574 404.522 209.18 404.575 208.859C404.64 208.526 404.524 208.196 404.229 207.869C403.934 207.542 403.623 207.388 403.298 207.407C402.997 207.428 402.626 207.637 402.185 208.035L401.619 208.546C401.153 208.967 400.844 209.383 400.691 209.796C400.55 210.197 400.502 210.674 400.546 211.229L400.7 213.866C400.74 214.721 400.715 215.452 400.624 216.059C400.557 216.668 400.345 217.294 399.988 217.936C399.644 218.567 399.1 219.218 398.358 219.888C395.601 222.377 393.115 222.394 390.899 219.94Z" fill="white"/>
<path d="M411.038 211.577L415.999 217.64L413.696 219.525L411.006 216.238L406.577 219.862L409.122 222.973L406.839 224.841L404.293 221.731L399.864 225.356L402.554 228.643L400.251 230.528L395.29 224.465L411.038 211.577Z" fill="white"/>
<path d="M418.165 220.427L420.31 223.301L406.388 233.693L408.974 237.158L406.589 238.938L401.858 232.598L418.165 220.427Z" fill="white"/>
<path d="M424.302 228.773L428.68 235.269L426.213 236.933L423.838 233.41L418.249 237.177L420.58 240.637L418.133 242.286L415.802 238.826L409.432 243.12L407.427 240.146L424.302 228.773Z" fill="white"/>
<path d="M418.309 247.087L420.968 245.488L424.403 251.199L421.744 252.798L418.309 247.087Z" fill="white"/>
<path d="M420.578 262.111C419.032 259.188 420.005 256.802 423.498 254.955L431.48 250.734C434.958 248.894 437.47 249.436 439.016 252.359C440.562 255.282 439.596 257.664 436.118 259.503L433.802 260.728L432.089 257.49L435.44 255.718C436.054 255.393 436.43 255.07 436.567 254.748C436.712 254.441 436.681 254.093 436.475 253.703C436.269 253.313 435.994 253.084 435.651 253.016C435.316 252.963 434.841 253.099 434.227 253.424L424.131 258.764C423.531 259.081 423.159 259.393 423.014 259.7C422.878 260.021 422.912 260.377 423.118 260.767C423.325 261.157 423.595 261.378 423.93 261.431C424.273 261.499 424.744 261.375 425.344 261.057L428.717 259.274L430.429 262.512L428.136 263.725C424.643 265.572 422.124 265.034 420.578 262.111Z" fill="white"/>
<path d="M443.657 262.123L445.743 266.651L428.39 277.614L426.868 274.311L429.928 272.565L428.896 270.324L425.58 271.515L424.047 268.188L443.657 262.123ZM432.514 271.065L441.267 266.053L441.766 265.738L441.214 265.937L431.716 269.333L432.514 271.065Z" fill="white"/>
<path d="M431.009 284.138C431.092 283.978 431.261 283.829 431.516 283.691C431.787 283.547 432.144 283.388 432.585 283.213L436.771 281.555C437.418 281.299 437.819 280.976 437.974 280.586C438.136 280.212 438.133 279.812 437.964 279.387L437.599 278.464L429.96 281.49L428.64 278.155L447.559 270.662L449.235 274.895C449.723 276.125 449.962 277.143 449.952 277.949C449.95 278.771 449.656 279.48 449.071 280.076C448.503 280.666 447.587 281.211 446.326 281.711L446.019 281.832C445.01 282.232 444.167 282.475 443.489 282.561C442.834 282.656 442.256 282.602 441.756 282.399C441.278 282.205 440.799 281.848 440.319 281.326C440.347 282.318 440.118 283.121 439.631 283.733C439.16 284.339 438.475 284.82 437.576 285.176L433.934 286.619C433.524 286.781 433.191 286.931 432.936 287.069C432.696 287.2 432.503 287.358 432.358 287.544L431.009 284.138ZM440.471 278.394C440.702 278.977 441.013 279.301 441.403 279.365C441.815 279.439 442.313 279.36 442.896 279.129L445.545 278.08C446.239 277.806 446.663 277.519 446.819 277.22C446.99 276.915 446.963 276.479 446.738 275.912L446.373 274.989L440.106 277.471L440.471 278.394Z" fill="white"/>
<path d="M452.214 282.592L454.724 290.014L451.905 290.967L450.544 286.943L445.122 288.777L446.41 292.584L443.615 293.53L442.327 289.723L436.906 291.557L438.267 295.581L435.448 296.535L432.938 289.113L452.214 282.592Z" fill="white"/>
<path d="M434.639 299.146C434.955 299.671 435.351 300.11 435.828 300.463C436.305 300.817 436.814 301.01 437.355 301.043C437.058 300.937 436.821 300.796 436.644 300.618C436.456 300.462 436.316 300.23 436.224 299.921C436.083 299.449 436.13 299.011 436.362 298.605C436.612 298.195 437.045 297.897 437.662 297.713C438.247 297.539 438.772 297.577 439.236 297.828C439.721 298.09 440.051 298.514 440.226 299.099C440.415 299.732 440.349 300.283 440.028 300.75C439.708 301.218 439.182 301.56 438.45 301.778C437.573 302.04 436.65 301.97 435.68 301.569C434.7 301.189 433.784 300.551 432.933 299.655L434.639 299.146Z" fill="white"/>
<path d="M459.9 308.699L460.974 313.567L441.684 320.585L440.9 317.033L444.262 315.978L443.73 313.569L440.237 314.027L439.448 310.45L459.9 308.699ZM447.108 315.064L456.727 312.03L457.282 311.829L456.7 311.905L446.697 313.201L447.108 315.064Z" fill="white"/>
<path d="M461.882 317.698L462.401 320.86L451.418 326.192L462.964 324.299L463.483 327.462L443.402 330.754L442.883 327.591L453.891 322.255L442.319 324.152L441.801 320.99L461.882 317.698Z" fill="white"/>
<path d="M463.972 330.773L464.437 335.072C464.588 336.472 464.545 337.577 464.309 338.387C464.074 339.214 463.579 339.839 462.823 340.261C462.085 340.699 461.009 340.995 459.592 341.148L450.235 342.159C448.836 342.31 447.721 342.251 446.89 341.983C446.078 341.73 445.461 341.225 445.038 340.469C444.632 339.711 444.355 338.641 444.205 337.259L443.741 332.96L463.972 330.773ZM446.891 337.02C446.942 337.492 447.032 337.849 447.161 338.091C447.306 338.331 447.527 338.486 447.825 338.556C448.124 338.643 448.552 338.657 449.109 338.596L459.932 337.427C460.506 337.365 460.929 337.259 461.203 337.11C461.479 336.978 461.652 336.772 461.724 336.491C461.798 336.227 461.809 335.851 461.756 335.362L461.677 334.629L446.807 336.236L446.891 337.02Z" fill="white"/>
<path d="M465.79 350.393L465.84 354.539L453.756 356.642L465.887 358.481L465.937 362.627L445.589 362.87L445.551 359.666L457.352 359.524L445.526 357.58L445.506 355.901L457.283 353.7L445.481 353.841L445.443 350.636L465.79 350.393Z" fill="white"/>
<path d="M465.872 366.961L465.501 374.786L462.529 374.645L462.73 370.402L457.013 370.131L456.823 374.146L453.875 374.006L454.066 369.991L448.349 369.72L448.148 373.963L445.175 373.823L445.546 365.997L465.872 366.961Z" fill="white"/>
<path d="M465.379 377.591L465.06 380.78L453.07 383.083L464.713 384.247L464.394 387.436L444.146 385.412L444.465 382.223L456.48 379.922L444.812 378.755L445.13 375.566L465.379 377.591Z" fill="white"/>
<path d="M460.768 392.237L461.211 389.346L464.153 389.797L462.726 399.1L459.784 398.648L460.224 395.782L443.052 393.148L443.595 389.603L460.768 392.237Z" fill="white"/>
<path d="M461.633 404.992L460.617 409.873L440.146 408.368L440.887 404.806L444.385 405.223L444.888 402.807L441.514 401.793L442.26 398.207L461.633 404.992ZM447.356 405.555L457.374 406.73L457.962 406.774L457.4 406.605L447.745 403.687L447.356 405.555Z" fill="white"/>
<path d="M459.509 414.775L458.606 418.246L441.793 413.872L440.704 418.057L437.824 417.307L439.816 409.652L459.509 414.775Z" fill="white"/>
<path d="M441.836 433.27L442.689 430.846L434.484 427.956L435.676 424.573L454.869 431.334L453.678 434.717L445.473 431.827L444.619 434.25L452.824 437.14L451.632 440.523L432.439 433.762L433.631 430.379L441.836 433.27Z" fill="white"/>
<path d="M450.636 443.227L447.667 450.477L444.913 449.35L446.522 445.419L441.226 443.25L439.703 446.969L436.972 445.851L438.495 442.132L433.199 439.963L431.589 443.894L428.835 442.766L431.804 435.516L450.636 443.227Z" fill="white"/>
<path d="M445.282 455.889L443.164 460.403L423.597 454.199L425.142 450.906L428.449 452.121L429.497 449.887L426.449 448.12L428.005 444.804L445.282 455.889ZM431.262 453.132L440.736 456.594L441.298 456.774L440.79 456.479L432.073 451.405L431.262 453.132Z" fill="white"/>
<path d="M440.732 465.351L439.048 468.517L423.71 460.357L421.679 464.175L419.052 462.777L422.767 455.793L440.732 465.351Z" fill="white"/>
<path d="M432.685 473.935L434.177 471.419L436.737 472.937L431.937 481.032L429.377 479.514L430.856 477.02L415.913 468.159L417.742 465.074L432.685 473.935Z" fill="white"/>
<path d="M417.165 482.466L418.592 480.33L411.359 475.496L413.352 472.515L430.271 483.821L428.278 486.803L421.045 481.97L419.618 484.106L426.851 488.939L424.858 491.921L407.939 480.614L409.932 477.632L417.165 482.466Z" fill="white"/>
<path d="M405.265 483.887C405.605 483.422 406.041 483.142 406.573 483.047C407.104 482.953 407.609 483.08 408.088 483.431C408.581 483.791 408.863 484.239 408.934 484.774C409.018 485.319 408.891 485.824 408.55 486.289C408.21 486.755 407.767 487.03 407.222 487.114C406.691 487.209 406.179 487.076 405.686 486.716C405.207 486.366 404.932 485.923 404.861 485.388C404.79 484.853 404.925 484.353 405.265 483.887Z" fill="white"/>
<path d="M59.5259 176.193L62.1896 173.829L73.587 184.528L74.0302 184.951L74.0492 184.934L73.6821 184.444L64.682 171.618L67.9165 168.748L79.5612 179.227L80.0235 179.633L80.0425 179.616L79.6754 179.126L70.3899 166.553L73.0536 164.19L84.5997 181.15L80.9847 184.357L70.0873 174.337L69.5913 173.893L69.9731 174.438L78.6254 186.451L74.9914 189.675L59.5259 176.193Z" fill="white"/>
<path d="M74.2925 163.354L80.4619 158.525L82.2962 160.868L78.9511 163.487L82.4786 167.994L85.6434 165.516L87.462 167.84L84.2972 170.317L87.8247 174.824L91.1698 172.206L93.0041 174.549L86.8347 179.378L74.2925 163.354Z" fill="white"/>
<path d="M83.8952 155.657L86.8606 161.373L85.593 162.312L82.4231 156.746L83.8952 155.657Z" fill="white"/>
<path d="M102.879 167.439C102.704 167.394 102.521 167.263 102.33 167.045C102.129 166.812 101.894 166.501 101.625 166.109L99.073 162.4C98.6789 161.827 98.2745 161.509 97.8596 161.444C97.4587 161.37 97.0696 161.463 96.6924 161.723L95.8752 162.285L100.532 169.053L97.5774 171.086L86.0431 154.322L89.7942 151.741C90.8838 150.991 91.8225 150.531 92.6103 150.359C93.4119 150.178 94.1687 150.306 94.8807 150.742C95.583 151.165 96.3187 151.935 97.0876 153.053L97.2751 153.325C97.8902 154.219 98.3154 154.987 98.5505 155.628C98.7901 156.245 98.8667 156.82 98.7804 157.353C98.6985 157.862 98.4572 158.409 98.0565 158.993C99.0171 158.744 99.8503 158.788 100.556 159.126C101.252 159.45 101.874 160.01 102.422 160.806L104.643 164.033C104.892 164.396 105.113 164.687 105.304 164.905C105.486 165.11 105.684 165.262 105.897 165.362L102.879 167.439ZM95.1641 159.501C95.681 159.146 95.9272 158.77 95.9026 158.376C95.8824 157.957 95.6944 157.49 95.3388 156.973L93.724 154.626C93.3011 154.011 92.9267 153.661 92.6009 153.577C92.2655 153.478 91.8463 153.602 91.3434 153.948L90.5261 154.51L94.3469 160.064L95.1641 159.501Z" fill="white"/>
<path d="M96.5794 147.132L103.231 142.992L104.803 145.518L101.197 147.763L104.221 152.622L107.633 150.498L109.192 153.003L105.78 155.127L108.805 159.986L112.411 157.741L113.984 160.268L107.332 164.408L96.5794 147.132Z" fill="white"/>
<path d="M114.411 136.607L118.823 134.285L130.687 151.037L127.468 152.731L125.563 149.767L123.38 150.916L124.744 154.164L121.503 155.87L114.411 136.607ZM123.929 147.264L118.462 138.787L118.122 138.305L118.349 138.846L122.241 148.152L123.929 147.264Z" fill="white"/>
<path d="M129.666 128.984L133.991 127.128C135.612 126.433 136.954 126.337 138.019 126.839C139.077 127.327 139.923 128.311 140.558 129.791L140.809 130.375C141.23 131.357 141.367 132.212 141.218 132.94C141.069 133.668 140.692 134.338 140.086 134.948C140.999 134.925 141.799 135.154 142.485 135.635C143.179 136.094 143.768 136.884 144.249 138.006L144.49 138.567C145.272 140.39 145.501 141.87 145.176 143.005C144.845 144.126 143.822 145.053 142.108 145.789L137.69 147.684L129.666 128.984ZM140.514 143.234C140.997 143.027 141.335 142.827 141.529 142.633C141.716 142.423 141.802 142.174 141.789 141.885C141.775 141.595 141.658 141.193 141.438 140.679L140.625 138.785C140.331 138.1 139.991 137.674 139.606 137.507C139.236 137.333 138.74 137.38 138.117 137.648L137.415 137.948L139.812 143.535L140.514 143.234ZM136.896 134.933C137.442 134.699 137.789 134.411 137.938 134.07C138.096 133.707 138.038 133.207 137.764 132.568L137.082 130.978C136.794 130.308 136.49 129.922 136.17 129.819C135.858 129.695 135.406 129.76 134.814 130.014L134.136 130.304L136.242 135.213L136.896 134.933Z" fill="white"/>
<path d="M154.3 140.906C154.142 140.821 153.996 140.649 153.864 140.39C153.725 140.116 153.573 139.757 153.408 139.312L151.836 135.093C151.593 134.441 151.278 134.034 150.892 133.87C150.521 133.701 150.121 133.696 149.692 133.856L148.762 134.202L151.631 141.901L148.27 143.153L141.166 124.084L145.432 122.495C146.672 122.033 147.695 121.815 148.5 121.84C149.322 121.86 150.025 122.168 150.609 122.765C151.187 123.346 151.713 124.272 152.187 125.543L152.302 125.853C152.681 126.87 152.907 127.718 152.979 128.397C153.061 129.054 152.995 129.63 152.781 130.126C152.578 130.6 152.211 131.072 151.68 131.541C152.672 131.533 153.469 131.779 154.072 132.278C154.668 132.762 155.135 133.457 155.472 134.362L156.84 138.033C156.994 138.446 157.137 138.782 157.27 139.04C157.396 139.283 157.55 139.479 157.733 139.628L154.3 140.906ZM148.751 131.329C149.339 131.11 149.669 130.806 149.741 130.417C149.823 130.007 149.755 129.507 149.536 128.919L148.541 126.25C148.281 125.55 148.003 125.12 147.708 124.959C147.406 124.781 146.97 124.799 146.398 125.013L145.468 125.359L147.821 131.675L148.751 131.329Z" fill="white"/>
<path d="M156.352 118.648L161.108 117.153L169.782 135.758L166.312 136.849L164.968 133.591L162.614 134.331L163.375 137.771L159.881 138.87L156.352 118.648ZM163.809 130.836L159.947 121.518L159.699 120.983L159.826 121.556L161.989 131.408L163.809 130.836Z" fill="white"/>
<path d="M164.933 115.961L168.033 115.148L174.372 125.582L171.404 114.264L174.504 113.451L179.665 133.135L176.565 133.948L170.22 123.489L173.194 134.832L170.094 135.645L164.933 115.961Z" fill="white"/>
<path d="M178.011 112.582L182.244 111.702C183.622 111.416 184.726 111.351 185.555 111.508C186.401 111.661 187.071 112.093 187.566 112.805C188.073 113.496 188.471 114.539 188.761 115.934L190.676 125.148C190.962 126.527 191.012 127.642 190.825 128.495C190.652 129.327 190.21 129.991 189.498 130.485C188.783 130.963 187.745 131.343 186.384 131.626L182.15 132.505L178.011 112.582ZM185.885 128.976C186.35 128.879 186.697 128.755 186.925 128.604C187.15 128.436 187.283 128.2 187.324 127.897C187.381 127.591 187.353 127.164 187.239 126.616L185.025 115.957C184.908 115.392 184.762 114.981 184.587 114.723C184.428 114.461 184.206 114.308 183.92 114.264C183.65 114.216 183.274 114.242 182.793 114.342L182.071 114.492L185.113 129.136L185.885 128.976Z" fill="white"/>
<path d="M197.81 108.82L202.477 108.219C204.226 107.994 205.544 108.269 206.43 109.044C207.314 109.802 207.859 110.981 208.065 112.578L208.146 113.209C208.282 114.269 208.179 115.128 207.836 115.788C207.494 116.447 206.948 116.988 206.198 117.409C207.083 117.637 207.789 118.076 208.317 118.727C208.86 119.358 209.209 120.279 209.365 121.49L209.443 122.095C209.696 124.063 209.511 125.549 208.888 126.552C208.262 127.539 207.025 128.151 205.175 128.389L200.406 129.002L197.81 108.82ZM204.341 125.496C204.862 125.429 205.242 125.328 205.482 125.195C205.719 125.045 205.871 124.829 205.937 124.547C206.003 124.265 206.001 123.846 205.929 123.291L205.666 121.247C205.571 120.507 205.361 120.004 205.036 119.738C204.728 119.47 204.238 119.38 203.565 119.466L202.808 119.563L203.584 125.593L204.341 125.496ZM203.135 116.521C203.723 116.445 204.136 116.264 204.373 115.977C204.624 115.671 204.705 115.173 204.617 114.484L204.396 112.768C204.303 112.045 204.116 111.59 203.836 111.404C203.57 111.199 203.118 111.137 202.478 111.22L201.747 111.314L202.428 116.612L203.135 116.521Z" fill="white"/>
<path d="M216.943 127.404C213.646 127.658 211.847 125.823 211.544 121.901L210.849 112.872C210.546 108.95 212.044 106.862 215.341 106.607C218.638 106.353 220.437 108.188 220.739 112.11L221.435 121.139C221.737 125.061 220.24 127.15 216.943 127.404ZM215.288 122.811C215.339 123.471 215.476 123.928 215.7 124.183C215.941 124.436 216.281 124.546 216.72 124.512C217.16 124.479 217.471 124.319 217.653 124.032C217.852 123.745 217.926 123.272 217.875 122.612L216.999 111.25C216.947 110.574 216.801 110.109 216.56 109.856C216.335 109.584 216.003 109.465 215.563 109.499C215.124 109.533 214.805 109.702 214.608 110.006C214.425 110.292 214.36 110.765 214.411 111.424L215.288 122.811Z" fill="white"/>
<path d="M230.162 126.451C230.04 126.319 229.957 126.109 229.915 125.822C229.872 125.518 229.843 125.128 229.829 124.654L229.696 120.154C229.675 119.459 229.508 118.972 229.195 118.692C228.898 118.413 228.521 118.28 228.063 118.293L227.072 118.323L227.315 126.535L223.73 126.641L223.128 106.301L227.679 106.166C229.001 106.127 230.039 106.249 230.794 106.532C231.566 106.815 232.133 107.332 232.494 108.085C232.855 108.821 233.056 109.867 233.096 111.223L233.106 111.553C233.138 112.638 233.079 113.513 232.929 114.179C232.796 114.828 232.548 115.353 232.187 115.754C231.842 116.137 231.343 116.466 230.689 116.74C231.632 117.051 232.308 117.54 232.718 118.206C233.127 118.856 233.346 119.664 233.375 120.63L233.491 124.545C233.504 124.986 233.531 125.35 233.574 125.637C233.616 125.907 233.699 126.142 233.824 126.342L230.162 126.451ZM227.983 115.598C228.611 115.58 229.021 115.398 229.214 115.053C229.424 114.69 229.52 114.196 229.501 113.568L229.417 110.721C229.395 109.975 229.27 109.478 229.042 109.23C228.813 108.966 228.394 108.842 227.784 108.861L226.792 108.89L226.992 115.628L227.983 115.598Z" fill="white"/>
<path d="M235.883 105.969L239.087 106.037L242.322 117.809L242.571 106.111L245.775 106.179L245.343 126.524L242.138 126.456L238.904 114.658L238.654 126.381L235.45 126.313L235.883 105.969Z" fill="white"/>
<path d="M259.504 127.801C256.215 127.467 254.769 125.343 255.166 121.429L256.081 112.42C256.479 108.506 258.323 106.716 261.612 107.05C264.902 107.384 266.348 109.508 265.951 113.422L265.036 122.431C264.638 126.345 262.794 128.135 259.504 127.801ZM258.689 122.988C258.623 123.646 258.677 124.12 258.852 124.411C259.044 124.703 259.359 124.872 259.797 124.916C260.236 124.961 260.57 124.858 260.8 124.609C261.047 124.361 261.204 123.908 261.271 123.25L262.422 111.913C262.491 111.238 262.429 110.755 262.237 110.463C262.064 110.155 261.758 109.979 261.319 109.935C260.881 109.89 260.537 110 260.289 110.265C260.059 110.514 259.91 110.968 259.844 111.626L258.689 122.988Z" fill="white"/>
<path d="M271.259 129.259C269.6 129.004 268.439 128.354 267.776 127.309C267.112 126.264 266.93 124.769 267.228 122.824L269.481 108.141L273.101 108.697L270.691 124.411C270.59 125.064 270.619 125.549 270.776 125.865C270.936 126.164 271.243 126.348 271.695 126.418C272.131 126.484 272.47 126.399 272.712 126.162C272.974 125.91 273.155 125.458 273.255 124.804L275.666 109.09L279.261 109.642L277.009 124.325C276.71 126.269 276.088 127.64 275.142 128.439C274.213 129.24 272.919 129.513 271.259 129.259Z" fill="white"/>
<path d="M283.641 113.469L280.774 112.889L281.364 109.972L290.588 111.839L289.998 114.756L287.156 114.181L283.71 131.209L280.195 130.497L283.641 113.469Z" fill="white"/>
<path d="M299.606 135.308C296.422 134.416 295.36 132.076 296.421 128.288L298.863 119.568C299.923 115.779 302.046 114.331 305.23 115.223C308.414 116.114 309.476 118.454 308.415 122.243L305.973 130.963C304.913 134.751 302.79 136.199 299.606 135.308ZM299.625 130.427C299.447 131.063 299.419 131.54 299.542 131.856C299.681 132.177 299.963 132.397 300.388 132.515C300.812 132.634 301.159 132.591 301.428 132.384C301.714 132.182 301.946 131.763 302.124 131.126L305.197 120.153C305.38 119.5 305.402 119.013 305.262 118.692C305.144 118.359 304.873 118.134 304.448 118.015C304.024 117.896 303.666 117.946 303.376 118.164C303.107 118.37 302.884 118.792 302.705 119.429L299.625 130.427Z" fill="white"/>
<path d="M313.609 117.952L321.043 120.423L320.104 123.247L316.073 121.907L313.947 128.304L317.905 129.62L316.974 132.42L313.016 131.103L310.592 138.393L307.189 137.261L313.609 117.952Z" fill="white"/>
<path d="M330.695 127.239L327.991 126.123L329.126 123.372L337.826 126.963L336.69 129.714L334.01 128.607L327.381 144.666L324.065 143.297L330.695 127.239Z" fill="white"/>
<path d="M341.126 141.272L338.802 140.178L335.096 148.048L331.851 146.52L340.52 128.11L343.765 129.638L340.059 137.508L342.383 138.603L346.089 130.732L349.334 132.26L340.665 150.67L337.42 149.143L341.126 141.272Z" fill="white"/>
<path d="M352.093 133.641L359.024 137.295L357.636 139.927L353.878 137.946L351.209 143.009L354.764 144.883L353.388 147.493L349.833 145.619L347.164 150.682L350.921 152.663L349.533 155.296L342.603 151.642L352.093 133.641Z" fill="white"/>
<path d="M368.126 142.476L371.68 144.709C372.9 145.475 373.747 146.247 374.22 147.025C374.702 147.788 374.85 148.652 374.664 149.617C374.502 150.577 373.993 151.738 373.136 153.103L372.716 153.77C371.869 155.12 371.043 156.084 370.24 156.661C369.452 157.247 368.593 157.498 367.664 157.415C366.758 157.327 365.702 156.904 364.496 156.146L363.979 155.821L360.339 161.616L357.302 159.708L368.126 142.476ZM366.361 154.133C366.834 154.431 367.255 154.495 367.622 154.325C368.012 154.15 368.411 153.739 368.816 153.093L370.832 149.883C371.238 149.237 371.426 148.715 371.397 148.315C371.39 147.911 371.15 147.56 370.677 147.262L369.729 146.667L365.413 153.538L366.361 154.133Z" fill="white"/>
<path d="M381.133 150.876L385.219 153.734L375.765 171.954L372.784 169.869L374.546 166.818L372.524 165.403L370.262 168.105L367.261 166.005L381.133 150.876ZM376.022 164.219L381.052 155.475L381.325 154.952L380.948 155.402L374.459 163.125L376.022 164.219Z" fill="white"/>
<path d="M388.678 156.196L391.21 158.161L386.787 169.541L393.962 160.298L396.494 162.264L384.016 178.338L381.484 176.372L385.922 164.973L378.731 174.236L376.2 172.27L388.678 156.196Z" fill="white"/>
<path d="M399.233 164.467L402.512 167.286C403.579 168.203 404.304 169.038 404.685 169.791C405.08 170.555 405.146 171.35 404.883 172.175C404.645 172.999 404.061 173.951 403.133 175.031L396.998 182.168C396.08 183.235 395.226 183.955 394.437 184.327C393.671 184.698 392.876 184.752 392.05 184.489C391.236 184.214 390.301 183.623 389.247 182.717L385.968 179.898L399.233 164.467ZM391.043 180.705C391.403 181.015 391.713 181.214 391.972 181.303C392.242 181.378 392.51 181.34 392.775 181.188C393.053 181.047 393.374 180.764 393.739 180.339L400.836 172.084C401.212 171.647 401.449 171.28 401.547 170.984C401.657 170.699 401.643 170.43 401.504 170.176C401.377 169.933 401.127 169.651 400.754 169.33L400.195 168.849L390.445 180.191L391.043 180.705Z" fill="white"/>
<path d="M408.917 172.894L414.616 178.27L412.574 180.435L409.484 177.52L405.557 181.683L408.48 184.441L406.455 186.587L403.532 183.829L399.604 187.992L402.694 190.907L400.652 193.072L394.953 187.696L408.917 172.894Z" fill="white"/>
<path d="M416.572 180.049L419.429 183.052L412.007 192.817L422.147 185.909L425.005 188.913L410.262 202.939L408.053 200.617L416.604 192.482L406.615 199.106L405.458 197.889L412.589 188.262L404.038 196.397L401.829 194.075L416.572 180.049Z" fill="white"/>
<path d="M428.31 192.621L430.67 195.322L415.345 208.71L412.985 206.009L428.31 192.621Z" fill="white"/>
<path d="M419.488 214.067C417.41 211.495 417.908 208.967 420.982 206.485L428.006 200.81C431.066 198.338 433.635 198.388 435.713 200.96C437.791 203.533 437.3 206.055 434.24 208.527L432.202 210.173L429.9 207.324L432.848 204.942C433.389 204.506 433.696 204.116 433.768 203.774C433.851 203.445 433.754 203.109 433.477 202.766C433.2 202.423 432.887 202.252 432.537 202.251C432.199 202.263 431.759 202.487 431.218 202.924L422.334 210.101C421.806 210.527 421.501 210.905 421.417 211.234C421.345 211.576 421.447 211.918 421.724 212.261C422.001 212.604 422.309 212.769 422.648 212.757C422.998 212.758 423.436 212.546 423.964 212.119L426.932 209.722L429.234 212.571L427.215 214.201C424.142 216.684 421.566 216.64 419.488 214.067Z" fill="white"/>
<path d="M430.583 228.871C429.632 227.488 429.33 226.183 429.679 224.955C430.028 223.727 431.013 222.555 432.633 221.44L433.786 220.647L435.862 223.665L433.725 225.135C433.166 225.52 432.832 225.873 432.724 226.194C432.616 226.516 432.697 226.872 432.966 227.263C433.225 227.64 433.513 227.834 433.828 227.843C434.167 227.857 434.602 227.681 435.132 227.316L436.075 226.667C436.648 226.273 437.038 225.882 437.244 225.493C437.464 225.095 437.586 224.599 437.61 224.006L437.811 221.336C437.901 220.121 438.152 219.094 438.563 218.256C438.988 217.408 439.703 216.638 440.709 215.945C442.064 215.013 443.348 214.635 444.559 214.81C445.784 214.975 446.859 215.728 447.781 217.07C448.666 218.355 448.98 219.59 448.724 220.774C448.493 221.963 447.692 223.028 446.323 223.97L445.066 224.835L443.004 221.839L444.597 220.743C445.169 220.349 445.503 219.996 445.597 219.684C445.705 219.362 445.634 219.02 445.384 218.657C445.135 218.294 444.847 218.1 444.522 218.077C444.221 218.058 443.826 218.216 443.337 218.553L442.708 218.985C442.191 219.341 441.83 219.713 441.624 220.102C441.432 220.481 441.321 220.948 441.292 221.504L441.097 224.138C441.025 224.991 440.904 225.712 440.734 226.303C440.587 226.897 440.295 227.49 439.857 228.079C439.433 228.659 438.808 229.233 437.984 229.8C434.925 231.905 432.458 231.596 430.583 228.871Z" fill="white"/>
<path d="M436.645 238.112C434.909 235.298 435.714 232.858 439.062 230.792L446.768 226.036C450.116 223.97 452.658 224.344 454.395 227.158C456.132 229.972 455.326 232.412 451.978 234.478L444.272 239.234C440.924 241.3 438.382 240.926 436.645 238.112ZM439.968 234.536C439.406 234.884 439.062 235.215 438.938 235.531C438.823 235.861 438.881 236.214 439.113 236.589C439.344 236.964 439.629 237.167 439.967 237.198C440.313 237.243 440.768 237.092 441.331 236.744L451.029 230.76C451.606 230.403 451.952 230.06 452.067 229.73C452.205 229.406 452.159 229.056 451.927 228.681C451.696 228.305 451.4 228.1 451.038 228.063C450.701 228.033 450.25 228.191 449.688 228.538L439.968 234.536Z" fill="white"/>
<path d="M462.508 241.452L464.095 244.64L450.793 252.852L450.269 253.169L450.281 253.192L450.85 252.965L465.58 247.624L467.506 251.495L454.352 260.002L453.839 260.342L453.851 260.365L454.42 260.139L468.98 254.455L470.566 257.643L451.181 264.364L449.028 260.038L461.544 252.132L462.102 251.769L461.476 251.996L447.623 257.214L445.458 252.864L462.508 241.452Z" fill="white"/>
<path d="M470.792 258.58L473.854 265.791L471.114 266.954L469.454 263.044L464.186 265.281L465.757 268.98L463.041 270.134L461.47 266.434L456.202 268.671L457.862 272.581L455.123 273.744L452.061 266.533L470.792 258.58Z" fill="white"/>
<path d="M475.867 270.255L469.572 271.616L469 270.146L475.202 268.549L475.867 270.255Z" fill="white"/>
<path d="M459.369 285.122C459.458 284.965 459.632 284.822 459.893 284.695C460.17 284.562 460.532 284.416 460.98 284.259L465.228 282.766C465.884 282.535 466.297 282.228 466.468 281.845C466.644 281.477 466.656 281.078 466.505 280.646L466.176 279.71L458.424 282.434L457.235 279.05L476.433 272.303L477.943 276.599C478.381 277.846 478.58 278.873 478.54 279.678C478.505 280.499 478.184 281.196 477.576 281.769C476.985 282.337 476.049 282.845 474.769 283.295L474.457 283.405C473.433 283.765 472.581 283.974 471.901 284.033C471.243 284.103 470.668 284.027 470.176 283.804C469.706 283.592 469.241 283.216 468.782 282.676C468.771 283.669 468.511 284.461 468 285.054C467.505 285.641 466.802 286.095 465.89 286.416L462.195 287.714C461.779 287.861 461.44 287.998 461.18 288.125C460.935 288.247 460.736 288.398 460.584 288.577L459.369 285.122ZM469.048 279.752C469.256 280.344 469.554 280.679 469.941 280.759C470.351 280.849 470.851 280.79 471.443 280.582L474.131 279.637C474.835 279.39 475.27 279.12 475.437 278.827C475.62 278.529 475.61 278.093 475.408 277.517L475.079 276.581L468.719 278.816L469.048 279.752Z" fill="white"/>
<path d="M480.575 284.303L482.84 291.803L479.991 292.663L478.763 288.597L473.284 290.252L474.447 294.099L471.622 294.953L470.46 291.105L464.981 292.76L466.21 296.827L463.361 297.687L461.095 290.188L480.575 284.303Z" fill="white"/>
<path d="M485.518 301.761L486.204 304.891L475.521 310.802L486.951 308.295L487.637 311.426L467.76 315.785L467.074 312.654L477.781 306.738L466.327 309.25L465.641 306.12L485.518 301.761Z" fill="white"/>
<path d="M468.821 323.055C468.279 319.792 469.949 317.839 473.83 317.195L482.763 315.712C486.644 315.068 488.855 316.377 489.397 319.639C489.938 322.901 488.269 324.854 484.388 325.498L475.454 326.981C471.573 327.626 469.362 326.317 468.821 323.055ZM473.25 321.004C472.598 321.112 472.154 321.289 471.92 321.534C471.689 321.796 471.609 322.145 471.681 322.58C471.753 323.015 471.94 323.31 472.241 323.467C472.545 323.64 473.023 323.672 473.675 323.564L484.917 321.697C485.586 321.586 486.036 321.4 486.268 321.138C486.519 320.89 486.608 320.548 486.536 320.114C486.464 319.679 486.268 319.376 485.947 319.206C485.646 319.049 485.169 319.025 484.517 319.134L473.25 321.004Z" fill="white"/>
<path d="M487.682 329.896L487.341 326.991L490.297 326.643L491.395 335.99L488.439 336.338L488.101 333.458L470.847 335.486L470.428 331.924L487.682 329.896Z" fill="white"/>
<path d="M492.404 348.995L492.624 353.975L472.413 357.567L472.253 353.933L475.746 353.473L475.637 351.008L472.117 350.858L471.955 347.199L492.404 348.995ZM478.707 353.062L488.705 351.73L489.286 351.628L488.7 351.603L478.623 351.157L478.707 353.062Z" fill="white"/>
<path d="M492.75 358.912L492.754 366.747L489.778 366.748L489.776 362.5L483.035 362.504L483.037 366.675L480.087 366.677L480.084 362.505L472.403 362.509L472.401 358.923L492.75 358.912Z" fill="white"/>
<path d="M472.105 374.566C472.246 374.454 472.462 374.387 472.751 374.367C473.058 374.347 473.448 374.349 473.922 374.371L478.42 374.581C479.114 374.613 479.612 374.484 479.915 374.193C480.216 373.918 480.377 373.552 480.399 373.095L480.445 372.104L472.238 371.72L472.406 368.138L492.733 369.088L492.52 373.636C492.458 374.957 492.257 375.983 491.918 376.714C491.577 377.462 491.018 377.988 490.24 378.291C489.479 378.595 488.421 378.715 487.065 378.652L486.735 378.637C485.651 378.586 484.783 378.46 484.13 378.26C483.493 378.078 482.989 377.791 482.617 377.4C482.261 377.027 481.971 376.504 481.748 375.832C481.366 376.747 480.826 377.384 480.131 377.742C479.452 378.101 478.63 378.258 477.664 378.213L473.751 378.03C473.311 378.009 472.946 378.009 472.656 378.029C472.384 378.051 472.143 378.116 471.934 378.225L472.105 374.566ZM483.092 373.221C483.063 373.847 483.213 374.27 483.542 374.489C483.888 374.726 484.374 374.859 485 374.889L487.846 375.022C488.592 375.056 489.096 374.97 489.361 374.761C489.642 374.554 489.797 374.145 489.825 373.535L489.872 372.544L483.138 372.23L483.092 373.221Z" fill="white"/>
<path d="M491.838 384.534L491.37 389.497L470.858 390.273L471.199 386.651L474.722 386.677L474.954 384.22L471.488 383.587L471.831 379.94L491.838 384.534ZM477.712 386.677L487.798 386.734L488.388 386.713L487.81 386.607L477.891 384.778L477.712 386.677Z" fill="white"/>
<path d="M490.829 394.213L490.363 397.769L470.187 395.124L470.653 391.568L490.829 394.213Z" fill="white"/>
<path d="M490.078 400.18L489.36 404.444C489.126 405.832 488.786 406.884 488.339 407.599C487.889 408.332 487.243 408.799 486.4 409.001C485.572 409.223 484.455 409.216 483.051 408.979L473.77 407.416C472.382 407.183 471.325 406.824 470.598 406.341C469.885 405.877 469.427 405.224 469.225 404.381C469.04 403.542 469.063 402.436 469.293 401.065L470.011 396.801L490.078 400.18ZM471.944 401.563C471.865 402.031 471.855 402.399 471.913 402.667C471.988 402.938 472.159 403.147 472.426 403.295C472.691 403.46 473.099 403.589 473.651 403.682L484.386 405.489C484.955 405.585 485.391 405.598 485.695 405.529C485.996 405.477 486.22 405.325 486.365 405.075C486.508 404.841 486.62 404.481 486.701 403.996L486.824 403.269L472.075 400.786L471.944 401.563Z" fill="white"/>
<path d="M482.963 421.345L483.668 418.506L486.556 419.224L484.286 428.357L481.398 427.639L482.097 424.825L465.237 420.634L466.103 417.154L482.963 421.345Z" fill="white"/>
<path d="M462.418 429.954C463.368 426.787 465.728 425.768 469.496 426.899L478.169 429.501C481.938 430.631 483.347 432.78 482.396 435.947C481.446 439.114 479.087 440.133 475.319 439.002L466.645 436.4C462.877 435.27 461.468 433.121 462.418 429.954ZM467.298 430.063C466.665 429.873 466.189 429.837 465.871 429.954C465.547 430.087 465.322 430.365 465.196 430.787C465.069 431.209 465.106 431.557 465.308 431.83C465.504 432.119 465.919 432.359 466.553 432.549L477.468 435.823C478.117 436.018 478.604 436.049 478.927 435.916C479.262 435.803 479.492 435.536 479.619 435.114C479.746 434.692 479.703 434.334 479.49 434.04C479.288 433.767 478.871 433.535 478.238 433.345L467.298 430.063Z" fill="white"/>
<path d="M473.833 451.466L474.888 448.738L477.664 449.812L474.268 458.589L471.492 457.516L472.539 454.811L456.336 448.542L457.63 445.197L473.833 451.466Z" fill="white"/>
<path d="M472.132 463.718L470.127 468.283L450.411 462.568L451.874 459.237L455.211 460.37L456.203 458.111L453.112 456.419L454.585 453.066L472.132 463.718ZM458.048 461.31L467.605 464.536L468.172 464.702L467.656 464.42L458.815 459.564L458.048 461.31Z" fill="white"/>
<path d="M468.259 472.355L466.683 475.576L451.078 467.94L449.177 471.824L446.504 470.516L449.981 463.411L468.259 472.355Z" fill="white"/>
<path d="M451.739 478.919L451.946 478.539L444.424 474.428L446.145 471.281L464 481.041L462.28 484.188L454.758 480.077L454.551 480.456L460.926 486.666L459.144 489.924L451.717 482.299L441.289 480.164L443.07 476.905L451.739 478.919Z" fill="white"/>
<path d="M452.387 501.026L449.656 505.196L431.155 496.302L433.148 493.26L436.252 494.928L437.604 492.864L434.835 490.685L436.842 487.621L452.387 501.026ZM438.895 496.324L447.788 501.084L448.319 501.341L447.857 500.978L439.94 494.728L438.895 496.324Z" fill="white"/>
<path d="M447.14 508.993L444.369 512.796C443.331 514.222 442.226 514.99 441.054 515.102C439.895 515.223 438.665 514.81 437.363 513.861L436.849 513.487C435.985 512.858 435.432 512.192 435.188 511.49C434.944 510.788 434.926 510.02 435.135 509.186C434.362 509.672 433.557 509.883 432.722 509.821C431.891 509.781 430.981 509.402 429.994 508.684L429.501 508.324C427.897 507.156 426.945 506.001 426.644 504.859C426.357 503.727 426.762 502.406 427.86 500.899L430.691 497.013L447.14 508.993ZM430.536 502.281C430.226 502.706 430.038 503.051 429.97 503.316C429.916 503.592 429.969 503.851 430.128 504.093C430.288 504.334 430.594 504.62 431.046 504.95L432.712 506.163C433.315 506.602 433.824 506.795 434.241 506.742C434.647 506.702 435.05 506.408 435.45 505.86L435.899 505.243L430.985 501.664L430.536 502.281ZM437.885 507.571C437.536 508.05 437.384 508.475 437.43 508.844C437.48 509.237 437.785 509.638 438.347 510.047L439.746 511.065C440.335 511.495 440.794 511.671 441.122 511.595C441.453 511.543 441.809 511.257 442.188 510.736L442.622 510.14L438.305 506.995L437.885 507.571Z" fill="white"/>
<path d="M420.611 510.007C422.689 507.435 425.258 507.384 428.319 509.856L435.364 515.545C438.425 518.016 438.917 520.539 436.839 523.111C434.762 525.684 432.193 525.735 429.132 523.263L422.087 517.574C419.026 515.102 418.534 512.58 420.611 510.007ZM425.088 511.954C424.573 511.539 424.146 511.325 423.807 511.313C423.458 511.314 423.144 511.486 422.867 511.829C422.591 512.172 422.494 512.508 422.577 512.837C422.649 513.179 422.943 513.558 423.458 513.973L432.323 521.132C432.851 521.558 433.29 521.771 433.639 521.77C433.992 521.793 434.306 521.633 434.583 521.29C434.86 520.947 434.956 520.599 434.87 520.246C434.787 519.917 434.488 519.545 433.973 519.13L425.088 511.954Z" fill="white"/>
<path d="M412.982 519.063C414.101 517.812 415.279 517.193 416.517 517.207C417.755 517.222 419.107 517.885 420.574 519.195L431.65 529.094L429.209 531.825L417.355 521.232C416.862 520.791 416.44 520.55 416.09 520.51C415.752 520.481 415.43 520.637 415.125 520.979C414.831 521.307 414.718 521.638 414.785 521.971C414.853 522.327 415.133 522.726 415.626 523.166L427.48 533.76L425.057 536.472L413.98 526.573C412.514 525.263 411.704 523.993 411.551 522.765C411.386 521.549 411.863 520.315 412.982 519.063Z" fill="white"/>
<path d="M419.567 537.962L421.615 535.874L423.74 537.957L417.151 544.677L415.026 542.594L417.056 540.523L404.651 528.36L407.162 525.799L419.567 537.962Z" fill="white"/>
</svg>