<svg xmlns="http://www.w3.org/2000/svg" viewBox="0 0 638 108" fill="none">
<path d="M0.633789 1.9375H18.9904V90.8564H41.1225V106.088H0.633789V1.9375Z" fill="#F3EFE6"/>
<path d="M59.2126 1.9375H84.7296L98.5296 106.088H79.9126L78.3503 88.1224H65.722L64.1598 106.088H45.4126L59.2126 1.9375ZM76.9183 72.8903L72.3616 21.4658L71.9711 18.4715L71.7107 21.4658L67.1541 72.8903H76.9183Z" fill="#F3EFE6"/>
<path d="M104.257 77.0555V30.8385C104.257 10.6593 112.589 0.634766 129.644 0.634766C146.699 0.634766 155.031 10.6593 155.031 30.8385V44.248H136.284V24.8499C136.284 17.4291 133.94 15.3461 129.644 15.3461C125.348 15.3461 123.004 17.4291 123.004 24.8499V83.3046C123.004 90.5951 125.348 92.6782 129.644 92.6782C133.94 92.6782 136.284 90.5951 136.284 83.3046V63.7763H155.031V77.0555C155.031 97.2348 146.699 107.389 129.644 107.389C112.589 107.389 104.257 97.2348 104.257 77.0555Z" fill="#F3EFE6"/>
<path d="M174.299 17.1696H159.328V1.9375H207.497V17.1696H192.656V106.088H174.299V17.1696Z" fill="#F3EFE6"/>
<path d="M212.184 77.1857V30.8385C212.184 10.6593 220.516 0.634766 237.57 0.634766C254.625 0.634766 262.957 10.6593 262.957 30.8385V77.1857C262.957 97.365 254.625 107.389 237.57 107.389C220.516 107.389 212.184 97.365 212.184 77.1857ZM237.57 92.548C241.997 92.548 244.21 90.2046 244.21 83.3046V24.9801C244.21 17.9499 241.997 15.4763 237.57 15.4763C233.144 15.4763 230.931 17.8197 230.931 24.8499V83.3046C230.931 90.2046 233.144 92.548 237.57 92.548Z" fill="#F3EFE6"/>
<path d="M271.032 77.1857V70.0253H289.779V83.3046C289.779 90.465 291.862 92.6782 296.549 92.6782C301.236 92.6782 303.059 90.3348 303.059 83.6951V77.8367C303.059 70.2857 300.715 67.031 296.289 63.6461L285.613 55.0536C276.761 47.8933 271.293 40.4725 271.293 27.1933C271.293 10.7895 279.495 0.634766 296.549 0.634766C312.432 0.634766 321.415 9.74797 321.415 26.8027V34.614H302.798V24.7197C302.798 17.1687 300.455 15.3461 296.289 15.3461C291.862 15.3461 289.91 17.4291 289.91 23.6782V27.5838C289.91 34.4838 292.253 37.6084 296.419 40.8631L306.964 49.3253C315.687 56.3555 321.806 62.7348 321.806 78.8782C321.806 97.6253 313.734 107.389 296.419 107.389C279.104 107.389 271.032 97.2348 271.032 77.1857Z" fill="#F3EFE6"/>
<path d="M330.526 1.9375H370.625V17.1696H348.883V46.462H369.453V61.5639H348.883V90.8564H370.625V106.088H330.526V1.9375Z" fill="#F3EFE6"/>
<path d="M429.001 48.998V58.998H380.001V48.998H429.001Z" fill="#F3EFE6"/>
<path d="M439.493 1.9375H479.591V17.1696H457.85V51.6696H479.201V66.7715H457.85V106.088H439.493V1.9375Z" fill="#F3EFE6"/>
<path d="M519.56 96.8451V73.8017C519.56 66.1205 515.524 64.0375 511.488 64.0375H506.411V106.088H488.054V1.9375H511.358C531.147 1.9375 538.307 7.796 538.307 28.6262V30.3186C538.307 46.7224 534.922 52.7111 525.158 56.4866C535.313 60.1318 538.307 67.813 538.307 76.796V96.8451C538.307 100.621 538.437 103.745 539.739 106.088H520.992C519.69 104.526 519.56 100.751 519.56 96.8451ZM511.488 50.2375C518.388 50.2375 519.56 45.6809 519.56 40.0828V25.5017C519.56 17.9507 517.737 15.7375 511.488 15.7375H506.411V50.2375H511.488Z" fill="#F3EFE6"/>
<path d="M547.936 1.9375H588.034V17.1696H566.293V46.462H586.862V61.5639H566.293V90.8564H588.034V106.088H547.936V1.9375Z" fill="#F3EFE6"/>
<path d="M597.408 1.9375H637.506V17.1696H615.765V46.462H636.335V61.5639H615.765V90.8564H637.506V106.088H597.408V1.9375Z" fill="#F3EFE6"/>
</svg>