<svg xmlns="http://www.w3.org/2000/svg" viewBox="0 0 248 460" fill="none">
<path fill-rule="evenodd" clip-rule="evenodd" d="M75.0846 429.536C95.5639 447.584 123.53 453.801 158.984 448.186C194.079 442.627 218.577 428.101 232.476 404.608C246.376 381.115 250.008 348.418 243.372 306.519L213.168 115.822C206.532 73.9227 193.003 44.1279 172.58 26.4379C152.101 8.38975 124.313 2.14495 89.2182 7.7035C53.7647 13.3188 29.0881 27.873 15.1883 51.3663C1.23181 74.5014 -2.42834 107.019 4.2079 148.918L34.4113 339.615C41.0475 381.514 54.6053 411.488 75.0846 429.536ZM98.6224 67.5037C83.3488 69.9228 72.9282 84.2656 75.3473 99.5392L117.428 365.227C119.847 380.501 134.19 390.922 149.464 388.502C164.737 386.083 175.158 371.741 172.739 356.467L130.658 90.7789C128.239 75.5053 113.896 65.0847 98.6224 67.5037Z" fill="#A380AE"/>
</svg>