<svg xmlns="http://www.w3.org/2000/svg" viewBox="0 0 424 460" fill="none">
<path fill-rule="evenodd" clip-rule="evenodd" d="M238.118 422.893C255.521 443.923 282.171 454.438 318.066 454.438C353.599 454.438 380.067 443.923 397.471 422.893C414.875 401.864 423.577 370.138 423.577 327.716V134.643C423.577 92.2207 414.875 60.6763 397.471 40.0093C380.067 18.9797 353.599 8.46484 318.066 8.46484C282.171 8.46484 255.521 18.9797 238.118 40.0093C220.714 60.6763 212.012 92.2207 212.012 134.643V327.716C212.012 370.138 220.714 401.864 238.118 422.893ZM318 69C302.536 69 290 81.536 290 97V366C290 381.464 302.536 394 318 394C333.464 394 346 381.464 346 366V97C346 81.536 333.464 69 318 69Z" fill="#A380AE"/>
<path d="M70.4831 103.642V385.91H13.9207V448.999H202.643V385.91H146.625V13.9036H79.7288C67.7637 43.9977 45.2838 59.0447 12.2891 59.0447V127.028C30.0555 127.028 42.7457 125.034 50.3599 121.046C58.3367 117.057 65.0444 111.256 70.4831 103.642Z" fill="#A380AE"/>
</svg>