<svg xmlns="http://www.w3.org/2000/svg" viewBox="0 0 54 44" fill="none">
<path d="M13.0271 13.0259C12.3735 11.6244 12.9799 9.95849 14.3814 9.30495L24.5321 4.57163C25.9336 3.91809 27.5995 4.52444 28.2531 5.92596L40.0864 31.3026C40.7399 32.7041 40.1335 34.37 38.732 35.0236L28.5814 39.7569C27.1799 40.4104 25.5139 39.8041 24.8604 38.4026L13.0271 13.0259Z" stroke="#BD3257" stroke-width="2" stroke-linecap="round"/>
<path d="M18.9932 10.4766L22.7997 8.70157" stroke="#BD3257" stroke-width="2" stroke-linecap="round"/>
<path d="M0.799805 21.999C0.799805 22.5513 1.24752 22.999 1.7998 22.999C2.35209 22.999 2.7998 22.5513 2.7998 21.999H0.799805ZM12.7004 1.24609L13.6835 1.4291C13.739 1.13122 13.6564 0.824258 13.4589 0.59443C13.2615 0.364603 12.9705 0.236696 12.6676 0.246632L12.7004 1.24609ZM53.1998 21.999C53.1998 21.4467 52.7521 20.999 52.1998 20.999C51.6475 20.999 51.1998 21.4467 51.1998 21.999H53.1998ZM41.2992 42.752L40.3047 42.6467C40.2749 42.9287 40.3661 43.21 40.5558 43.4208C40.7454 43.6316 41.0156 43.752 41.2992 43.752V42.752ZM6.84227 0.437756C6.29028 0.455866 5.85749 0.918022 5.8756 1.47001C5.89371 2.022 6.35586 2.45479 6.90785 2.43668L6.84227 0.437756ZM10.7044 6.50421C10.6034 7.04717 10.9616 7.56926 11.5046 7.67033C12.0475 7.7714 12.5696 7.41318 12.6707 6.87022L10.7044 6.50421ZM42.8695 37.4175C42.9276 36.8683 42.5296 36.3759 41.9803 36.3178C41.4311 36.2596 40.9388 36.6577 40.8806 37.2069L42.8695 37.4175ZM47.1251 43.752C47.6773 43.752 48.1251 43.3043 48.1251 42.752C48.1251 42.1997 47.6773 41.752 47.1251 41.752V43.752ZM2.7998 21.999C2.7998 13.7341 6.94215 6.4364 13.2685 2.06904L12.1323 0.423144C5.28822 5.1479 0.799805 13.0492 0.799805 21.999H2.7998ZM51.1998 21.999C51.1998 30.264 47.0575 37.5617 40.7311 41.929L41.8673 43.5749C48.7114 38.8502 53.1998 30.9489 53.1998 21.999H51.1998ZM12.6676 0.246632L6.84227 0.437756L6.90785 2.43668L12.7332 2.24556L12.6676 0.246632ZM11.7173 1.06309L10.7044 6.50421L12.6707 6.87022L13.6835 1.4291L11.7173 1.06309ZM42.2936 42.8573L42.8695 37.4175L40.8806 37.2069L40.3047 42.6467L42.2936 42.8573ZM41.2992 43.752H47.1251V41.752H41.2992V43.752Z" fill="#BD3257"/>
</svg>